<svg width="213" height="216" viewBox="0 0 213 216" fill="none" xmlns="http://www.w3.org/2000/svg">
<path d="M172.308 66.7513L172.373 66.7499C174.434 66.7086 176.264 67.5015 178.006 68.7718C179.052 69.5364 180.098 70.3015 181.144 71.0667C185.574 74.3071 190.008 77.5513 194.444 80.7781C194.443 80.7797 194.441 80.7813 194.44 80.7829C197.371 82.9256 200.302 85.0417 203.234 87.1579L203.234 87.1712C204.819 88.3188 205.324 89.739 204.957 92.0879C204.119 97.3948 203.318 102.702 202.517 108.01C202.072 110.957 201.627 113.905 201.176 116.852C200.69 120.011 199.991 120.916 197.511 121.083C190.457 121.559 183.412 122.379 176.367 123.199C168.155 124.155 159.943 125.111 151.715 125.523C148.406 125.688 145.596 127.458 143.14 130.367C142.262 131.404 141.384 132.44 140.505 133.476C137.686 136.797 134.867 140.119 132.098 143.497C130.598 145.332 128.877 146.298 126.923 146.74C121.592 147.944 116.262 149.168 110.931 150.393C99.17 153.095 87.4066 155.797 75.6223 158.278C66.2523 160.253 56.9004 162.405 47.5477 164.557C39.8778 166.321 32.2074 168.086 24.526 169.754C21.8389 170.342 21.6547 170.126 22.0802 166.407C22.5911 161.943 23.0956 157.477 23.6002 153.011C24.9932 140.681 26.3865 128.349 27.9147 116.047C29.9109 99.9938 31.0997 83.9251 30.4948 67.743C30.3716 64.4 30.5383 64.2568 33.0412 64.3036C45.6153 64.5654 58.1889 64.8405 70.7626 65.1156C71.6336 65.3491 80.4787 65.4143 82.2889 65.4277C82.4744 65.429 82.5861 65.4299 82.6076 65.4303C82.7423 65.6191 82.8927 65.6485 83.0517 65.4386C106.909 66.2042 130.762 66.7834 154.64 66.9771C155.134 66.9797 155.627 66.979 156.119 66.9782C159.287 66.9732 165.584 66.8983 172.308 66.7513Z" fill="#EFA733"/>
<path d="M95.6024 78.2154C84.2377 77.3687 72.9071 73.1875 69.5945 66.9684C66.2819 60.7494 65.4439 52.4068 62.4645 48.5948C51.2167 34.215 69.4636 24.5741 74.3692 20.6216C74.3692 20.6216 83.115 14.1676 89.1003 13.6749C101.927 12.619 109.988 9.90022 114.498 17.7119C119.008 25.5235 125.414 16.2106 125.969 37.5809C126.397 54.0602 129.863 66.4997 125.409 69.0716C114.596 75.3143 106.967 79.062 95.6024 78.2154Z" fill="#71B344"/>
</svg>
