<svg width="188" height="145" viewBox="0 0 188 145" fill="none" xmlns="http://www.w3.org/2000/svg">
<path d="M146.45 27.2197L146.459 27.1854C146.73 26.0888 145.922 24.9251 144.503 23.6989C143.648 22.963 142.793 22.2267 141.938 21.4903C138.314 18.3699 134.687 15.2459 131.081 12.1255C131.079 12.1259 131.076 12.1263 131.074 12.1267C128.678 10.0623 126.316 8.00353 123.953 5.94474L123.937 5.94194C122.655 4.82826 120.915 4.23154 117.909 3.88919C111.117 3.12136 104.329 2.33324 97.5404 1.5451C93.77 1.10736 89.9995 0.669617 86.2285 0.235358C82.1874 -0.228526 80.9699 -0.0613481 80.4965 1.23104C79.1464 4.90615 77.3635 8.49743 75.5804 12.0889C73.5021 16.2751 71.4236 20.4615 70.0305 24.7811C69.472 26.5182 66.9373 27.6194 63.0028 28.27C61.5997 28.5027 60.1984 28.7366 58.797 28.9705C54.3031 29.7205 49.8077 30.4708 45.2482 31.1812C42.771 31.5645 41.3684 32.2661 40.602 33.2133C38.5163 35.7972 36.4045 38.3758 34.2924 40.9545C29.6325 46.6443 24.9717 52.3351 20.5877 58.0879C17.0998 62.6617 13.3902 67.1851 9.68018 71.7089C6.63768 75.4188 3.59499 79.129 0.67427 82.8673C-0.354168 84.1739 -0.10037 84.3223 4.64172 84.9474C10.3342 85.6976 16.0286 86.4516 21.7234 87.2057C37.4445 89.2875 53.1694 91.3698 68.8691 93.3726C89.3579 95.9853 109.78 99.0346 130.155 103.072C134.365 103.905 134.563 103.849 134.77 102.495C135.773 95.6893 136.759 88.8806 137.745 82.0719C137.542 81.5509 138.398 76.7907 138.573 75.8165C138.591 75.7166 138.602 75.6566 138.604 75.6449C138.379 75.5293 138.358 75.4419 138.64 75.4048C140.203 62.4301 142.002 49.5 144.289 36.6457C144.339 36.3796 144.392 36.1157 144.445 35.8517C144.688 34.6479 144.085 36.6242 146.45 27.2197Z" fill="#DDDC00"/>
<path d="M99.6562 89.9927C98.5639 102.93 101.131 116.115 107.356 120.4C113.581 124.685 122.572 126.352 126.219 130.053C139.974 144.023 153.78 124.198 158.982 118.986C158.982 118.986 167.607 109.642 169.211 102.909C172.647 88.4818 177.058 79.5912 169.302 73.8135C161.545 68.0359 172.886 61.5866 149.572 59.1181C131.593 57.2145 118.581 52.2203 114.971 57.0414C106.21 68.743 100.748 77.0558 99.6562 89.9927Z" fill="#8E4A97"/>
</svg>
