<svg width="20" height="21" viewBox="0 0 20 21" fill="none" xmlns="http://www.w3.org/2000/svg">
<path d="M10 2.80469C8.39303 2.80469 6.82215 3.28121 5.486 4.174C4.14985 5.06678 3.10844 6.33574 2.49348 7.82038C1.87852 9.30503 1.71762 10.9387 2.03112 12.5148C2.34463 14.0909 3.11846 15.5386 4.25476 16.6749C5.39106 17.8112 6.8388 18.5851 8.4149 18.8986C9.99099 19.2121 11.6247 19.0512 13.1093 18.4362C14.594 17.8212 15.8629 16.7798 16.7557 15.4437C17.6485 14.1075 18.125 12.5367 18.125 10.9297C18.1227 8.7755 17.266 6.7102 15.7427 5.18696C14.2195 3.66372 12.1542 2.80696 10 2.80469ZM10.625 17.7758V12.8047H12.5C12.6658 12.8047 12.8247 12.7388 12.9419 12.6216C13.0592 12.5044 13.125 12.3454 13.125 12.1797C13.125 12.0139 13.0592 11.855 12.9419 11.7377C12.8247 11.6205 12.6658 11.5547 12.5 11.5547H10.625V9.67969C10.625 9.34817 10.7567 9.03023 10.9911 8.7958C11.2255 8.56138 11.5435 8.42969 11.875 8.42969H13.125C13.2908 8.42969 13.4497 8.36384 13.5669 8.24663C13.6842 8.12942 13.75 7.97045 13.75 7.80469C13.75 7.63893 13.6842 7.47996 13.5669 7.36275C13.4497 7.24554 13.2908 7.17969 13.125 7.17969H11.875C11.212 7.17969 10.5761 7.44308 10.1072 7.91192C9.6384 8.38076 9.375 9.01665 9.375 9.67969V11.5547H7.5C7.33424 11.5547 7.17527 11.6205 7.05806 11.7377C6.94085 11.855 6.875 12.0139 6.875 12.1797C6.875 12.3454 6.94085 12.5044 7.05806 12.6216C7.17527 12.7388 7.33424 12.8047 7.5 12.8047H9.375V17.7758C7.61312 17.6149 5.98107 16.7811 4.81831 15.4476C3.65556 14.1142 3.05162 12.3838 3.13212 10.6164C3.21263 8.84905 3.97137 7.18075 5.25053 5.95852C6.52969 4.7363 8.2308 4.05425 10 4.05425C11.7692 4.05425 13.4703 4.7363 14.7495 5.95852C16.0286 7.18075 16.7874 8.84905 16.8679 10.6164C16.9484 12.3838 16.3444 14.1142 15.1817 15.4476C14.0189 16.7811 12.3869 17.6149 10.625 17.7758Z" fill="#333333"/>
</svg>
