<svg width="1908" height="1008" viewBox="0 0 1908 1008" fill="none" xmlns="http://www.w3.org/2000/svg">
<path d="M1495.29 118.17C1510.63 131.008 1534.99 131.421 1550.38 119.099C1554 116.186 1557.12 112.729 1560.09 109.169C1565.13 103.118 1569.91 96.5957 1572 89.0004C1578.41 65.6764 1534.26 37.8119 1512.26 41.6783C1477.76 47.7295 1470.22 97.1842 1495.28 118.187" fill="#FFD23F"/>
<path d="M1796.29 92.5337C1811.63 105.371 1835.99 105.785 1851.38 93.4622C1855 90.5495 1858.12 87.0926 1861.09 83.5322C1866.13 77.4812 1870.91 70.959 1873 63.3636C1879.41 40.0397 1835.26 12.1752 1813.26 16.0416C1778.76 22.0928 1771.22 71.5475 1796.28 92.55" fill="#335CA7"/>
<path d="M227.756 1040.71C250.991 1060.36 288.704 1060.05 313.02 1040C318.741 1035.26 323.702 1029.69 328.436 1023.95C336.483 1014.21 344.144 1003.73 347.686 991.664C358.531 954.614 291.259 912.395 257.049 919.363C203.382 930.271 189.764 1008.59 227.738 1040.74" fill="#37BFEB"/>
<path d="M1794.68 923.45L1794.62 923.512C1792.71 925.493 1791.61 927.849 1790.94 930.463C1790.54 932.032 1790.14 933.601 1789.74 935.171C1788.05 941.829 1786.35 948.494 1784.63 955.147C1784.63 955.147 1784.64 955.147 1784.64 955.147C1783.51 959.55 1782.37 963.934 1781.23 968.319L1781.24 968.328C1780.62 970.701 1781.19 972.217 1783.22 973.553C1787.82 976.56 1792.38 979.605 1796.95 982.649C1799.48 984.341 1802.02 986.032 1804.56 987.717C1807.29 989.52 1808.58 989.491 1810.96 987.193C1817.74 980.657 1824.75 974.379 1831.77 968.1C1839.95 960.781 1848.13 953.462 1855.93 945.735C1859.06 942.628 1862.9 941.164 1867.25 940.865C1868.8 940.757 1870.35 940.647 1871.89 940.536C1876.87 940.182 1881.84 939.827 1886.8 939.562C1889.5 939.423 1891.76 938.441 1893.86 936.854C1899.6 932.523 1905.34 928.208 1911.09 923.892C1923.76 914.371 1936.44 904.848 1948.98 895.145C1958.95 887.431 1969.03 879.863 1979.11 872.294C1987.38 866.087 1995.65 859.879 2003.86 853.59C2006.74 851.394 2006.75 851.059 2003.67 848.793C1999.98 846.073 1996.29 843.346 1992.61 840.618C1982.43 833.089 1972.24 825.557 1961.96 818.18C1948.54 808.554 1935.84 798.13 1924.7 785.875C1922.4 783.345 1922.14 783.404 1919.89 785.879C1908.62 798.329 1897.35 810.789 1886.09 823.248C1885.46 824.266 1877.44 832.938 1875.8 834.713C1875.63 834.895 1875.53 835.005 1875.51 835.026C1875.53 835.293 1875.41 835.461 1875.11 835.465C1853.91 859.281 1832.58 882.96 1810.95 906.384C1810.5 906.868 1810.05 907.348 1809.6 907.827C1805.76 911.924 1801.06 916.85 1794.68 923.45Z" fill="#71B344"/>
<path d="M104.276 639.921C121.702 638.623 139.075 632.212 144.154 622.676C149.233 613.141 150.518 600.349 155.086 594.504C172.333 572.456 144.355 557.673 136.833 551.613C136.833 551.613 123.423 541.717 114.246 540.962C94.5794 539.343 82.2194 535.174 75.3041 547.152C68.3889 559.129 58.5667 544.85 57.7151 577.617C57.0584 602.884 51.7442 621.958 58.5747 625.901C75.1535 635.473 86.8509 641.219 104.276 639.921Z" fill="#7979B8"/>
<path d="M1668.54 443.511C1644.43 461.133 1625.39 485.468 1627.31 502.715C1629.24 519.962 1639.87 538.052 1638.93 549.952C1635.36 594.852 1690.56 588.866 1707.44 590.015C1707.44 590.015 1736.65 590.863 1750.75 583.486C1780.98 567.677 1803.06 561.908 1801.42 539.756C1799.79 517.604 1828.05 527.524 1797.26 483.412C1773.52 449.396 1762.62 419.32 1748.81 420.339C1715.31 422.813 1692.66 425.889 1668.54 443.511Z" fill="#EFA733"/>
</svg>
