<svg width="1913" height="1080" viewBox="0 0 1913 1080" fill="none" xmlns="http://www.w3.org/2000/svg">
<path d="M104.885 194.303C132.816 169.484 140.263 124.561 121.709 92.7367C117.318 85.2464 111.783 78.5396 106.017 72.0795C96.2159 61.0999 85.4725 50.4734 72.0087 44.5209C30.6582 26.2776 -32.9513 100.249 -31.8374 141.962C-30.1159 207.397 59.2218 234.886 104.912 194.328" fill="#E6503A"/>
<path d="M335.795 432.139C349.485 419.975 353.135 397.957 344.041 382.359C341.889 378.687 339.176 375.4 336.35 372.234C331.546 366.852 326.281 361.644 319.682 358.727C299.415 349.785 268.238 386.041 268.784 406.486C269.627 438.557 313.414 452.03 335.808 432.152" fill="#EFA733"/>
<path d="M90.2596 699.438L90.3273 699.416C92.4926 698.714 94.6804 698.965 96.9285 699.746C98.2783 700.217 99.6287 700.689 100.979 701.161C106.699 703.159 112.425 705.16 118.146 707.141C118.145 707.144 118.144 707.146 118.143 707.148C121.926 708.468 125.702 709.761 129.479 711.053L129.482 711.067C131.525 711.77 132.514 713.105 132.879 715.696C133.694 721.554 134.549 727.401 135.403 733.247C135.878 736.494 136.353 739.741 136.821 742.99C137.319 746.472 136.871 747.649 134.303 748.617C127.002 751.373 119.821 754.487 112.639 757.602C104.269 761.233 95.8974 764.863 87.3352 767.926C83.8922 769.156 81.4904 771.919 79.8266 775.768C79.2321 777.141 78.6354 778.512 78.0386 779.884C76.1247 784.283 74.2102 788.684 72.3671 793.126C71.3708 795.538 69.8619 797.105 67.9381 798.196C62.6906 801.167 57.451 804.16 52.2109 807.153C40.6492 813.756 29.0851 820.361 17.4282 826.74C8.16005 831.813 -1.03223 837.068 -10.2252 842.323C-17.7643 846.632 -25.3038 850.942 -32.886 855.152C-35.5368 856.631 -35.8008 856.461 -36.5431 852.408C-37.4339 847.543 -38.332 842.678 -39.2302 837.812C-41.7099 824.379 -44.1901 810.943 -46.5178 797.497C-49.5536 779.949 -53.4474 762.643 -59.2727 745.791C-60.4743 742.309 -60.3441 742.105 -57.6844 741.354C-44.3137 737.613 -30.9394 733.885 -17.565 730.158C-16.5697 730.126 -7.20246 727.369 -5.28537 726.804C-5.08889 726.746 -4.97067 726.712 -4.94774 726.705C-4.74493 726.861 -4.57653 726.844 -4.47585 726.572C20.9786 719.756 46.3696 712.746 71.6623 705.321C72.1859 705.166 72.7059 705.008 73.226 704.85C76.572 703.832 83.2016 701.741 90.2596 699.438Z" fill="#B59044"/>
<path d="M1767.34 902.682C1749.43 916.74 1743.23 943.784 1753.34 963.829C1755.73 968.547 1758.85 972.832 1762.11 976.975C1767.67 984.017 1773.81 990.878 1781.77 994.999C1806.24 1007.63 1847.68 965.004 1848.55 939.592C1849.93 899.732 1796.62 879.696 1767.32 902.666" fill="#8E4A97"/>
<path d="M1874.37 -27.4091L1874.4 -27.4204C1875.43 -27.7762 1876.61 -27.0594 1877.91 -25.7352C1878.68 -24.9382 1879.46 -24.1406 1880.23 -23.3428C1883.52 -19.9626 1886.81 -16.5784 1890.1 -13.216C1890.1 -13.2137 1890.1 -13.2114 1890.1 -13.2092C1892.28 -10.9741 1894.44 -8.77223 1896.61 -6.57037L1896.61 -6.55375C1897.79 -5.35914 1898.5 -3.66573 1899.07 -0.687664C1900.36 6.04191 1901.66 12.7668 1902.97 19.4917C1903.69 23.2268 1904.42 26.962 1905.14 30.6979C1905.91 34.7015 1905.85 35.9316 1904.65 36.505C1901.23 38.1396 1897.92 40.2004 1894.62 42.2613C1890.77 44.6635 1886.91 47.0658 1882.88 48.7933C1881.26 49.4863 1880.4 52.1055 1880.1 56.089C1879.99 57.5096 1879.88 58.9286 1879.76 60.3476C1879.41 64.8981 1879.05 69.4499 1878.74 74.0629C1878.57 76.5688 1878.01 78.0254 1877.16 78.8649C1874.85 81.1502 1872.54 83.4612 1870.24 85.7725C1865.15 90.8719 1860.06 95.9723 1854.89 100.801C1850.78 104.642 1846.74 108.701 1842.7 112.761C1839.38 116.09 1836.06 119.419 1832.71 122.628C1831.54 123.758 1831.38 123.516 1830.39 118.824C1829.21 113.192 1828.03 107.558 1826.85 101.923C1823.58 86.3696 1820.31 70.812 1817.12 55.2733C1812.96 34.9947 1808.38 14.8165 1802.86 -5.23815C1801.72 -9.38133 1801.76 -9.58429 1803.04 -9.8955C1809.49 -11.4259 1815.95 -12.9396 1822.41 -14.4533C1822.92 -14.2911 1827.43 -15.5157 1828.35 -15.7663C1828.44 -15.792 1828.5 -15.8075 1828.51 -15.8101C1828.64 -15.5949 1828.72 -15.5805 1828.74 -15.8654C1841.07 -18.4342 1853.34 -21.2344 1865.49 -24.5182C1865.74 -24.588 1865.99 -24.6616 1866.24 -24.7353C1867.38 -25.0711 1865.53 -24.3155 1874.37 -27.4091Z" fill="#B59044"/>
</svg>
