<svg width="446" height="232" viewBox="0 0 446 232" fill="none" xmlns="http://www.w3.org/2000/svg">
<path d="M17.3676 76.611C6.80202 113.64 26.7918 156.978 62.5752 174.588C71.0186 178.72 80.0336 181.539 89.1124 184.014C104.542 188.222 120.617 191.603 136.377 189.407C184.758 182.627 198.431 83.0533 172.584 47.2218C132.062 -8.99962 34.6361 16.0678 17.328 76.6037" fill="#DDDC00"/>
<path d="M444.875 159.548C444.682 162.341 444.201 165.039 445.164 167.736C444.971 167.928 444.875 168.121 444.875 168.314C444.779 179.873 444.586 191.528 444.49 203.087C444.49 221.678 444.49 240.365 444.393 258.956C444.393 264.543 444.201 264.832 438.904 266.759C426.769 270.997 414.345 271.382 401.729 270.034C392.484 268.974 383.334 267.337 374.089 266.181C369.948 265.699 365.71 265.603 361.761 267.24C357.909 268.781 354.249 268.589 350.975 266.181C342.403 259.727 332.484 258.86 322.275 259.053C309.659 255.585 297.139 252.021 284.523 248.553C285.197 243.833 283.752 239.113 283.559 234.393C283.174 221.389 283.463 208.289 282.596 195.285C281.633 179.295 282.596 163.112 281.152 147.122C287.701 146.64 293.864 145.099 299.354 141.342C309.37 134.503 319.579 127.857 329.691 121.114C330.461 120.536 331.232 120.054 331.521 118.995C333.447 118.706 335.18 117.935 336.625 116.587C340.285 113.215 344.619 113.119 349.338 113.408C360.895 113.986 372.548 114.179 384.105 114.179C389.113 114.179 393.158 115.623 397.203 118.61C408.76 126.99 420.509 135.081 432.066 143.365C434.281 144.906 436.496 146.159 439.193 146.737C443.141 147.507 444.201 148.952 444.586 152.805C444.779 155.021 444.779 157.332 444.875 159.644M363.013 188.542V188.349C366.962 188.349 371.007 188.349 374.956 188.349C379.193 188.253 379.289 188.157 379.386 183.726C379.386 179.006 379.386 174.19 379.386 169.47C379.386 166.58 378.519 163.786 377.267 161.282C374.185 155.021 368.31 152.131 361.184 153.383C353.094 154.828 348.086 159.355 347.604 166.483C347.219 172.745 347.604 179.006 347.604 185.267C347.604 187.771 348.856 188.542 351.168 188.542C355.116 188.542 359.161 188.542 363.11 188.542" fill="#D04526"/>
<path d="M331.521 119.093C331.328 120.153 330.558 120.634 329.691 121.212C319.579 127.955 309.467 134.698 299.354 141.537C293.865 145.294 287.701 146.835 281.152 147.317C275.663 146.546 270.269 148.28 264.78 148.376C252.645 148.761 240.607 148.183 228.472 149.243C215.278 150.399 201.987 149.243 188.697 150.495C176.851 151.555 164.909 150.495 152.966 151.555C139.58 152.711 126.097 151.555 112.614 152.711C102.405 153.578 92.0999 152.903 81.8913 152.903C80.2541 152.903 78.4242 153.385 77.0759 151.844C95.1818 145.005 113.48 138.84 131.875 132.771C133.801 132.097 135.824 131.23 137.942 131.23C144.01 131.423 150.077 130.556 156.048 129.882C165.39 130.171 174.636 128.822 183.881 128.437C194.282 128.051 204.684 127.088 215.085 126.318C235.117 124.969 255.245 123.524 275.277 122.272C290.59 121.309 305.999 120.249 321.312 119.575C324.683 119.382 328.054 118.13 331.521 119.093Z" fill="#C16256"/>
<path d="M156.047 129.879C149.98 130.553 144.009 131.324 137.941 131.228C135.822 131.228 133.896 132.095 131.874 132.769C113.479 138.837 95.1805 145.002 77.0747 151.841C75.3412 153.479 73.3187 154.153 70.911 154.057C66.7698 153.864 62.6285 153.961 58.391 153.961C62.8212 150.108 68.6959 148.663 73.2224 145.002C82.6606 140.668 91.6172 135.37 100.67 130.264C105.1 127.76 109.434 126.411 114.538 126.7C126.288 127.375 137.941 127.567 149.691 127.856C152.002 127.856 154.217 127.953 155.854 129.975" fill="#8F3225"/>
<path d="M58.3916 153.865C62.5328 153.865 66.6741 153.865 70.9116 153.961C73.3193 154.057 75.3418 153.383 77.0753 151.745C78.4236 153.19 80.2535 152.805 81.8907 152.805C92.1956 152.805 102.501 153.479 112.613 152.612C126.096 151.456 139.579 152.612 152.966 151.456C164.908 150.397 176.85 151.456 188.792 150.397C202.083 149.241 215.373 150.397 228.567 149.145C240.702 148.085 252.837 148.567 264.875 148.278C270.365 148.085 275.758 146.447 281.248 147.218C282.692 163.304 281.633 179.391 282.692 195.477C283.463 208.578 283.27 221.582 283.559 234.586C283.655 239.305 285.196 243.929 284.522 248.649C275.277 246.626 266.031 244.603 256.786 242.773C242.147 239.787 227.315 237.764 212.484 236.03C194.474 234.008 176.465 233.622 158.455 234.104C149.402 234.297 140.253 234.875 131.2 235.934C125.422 236.608 119.451 236.897 113.672 237.09C102.886 237.379 92.0993 239.017 81.3129 238.439C73.7046 238.053 66.1925 237.572 58.5842 237.09C59.2584 217.536 57.5248 198.078 57.6211 178.524C57.6211 172.07 57.5248 165.616 57.5248 159.162C57.5248 157.332 56.947 155.309 58.5842 153.768" fill="#AB3A27"/>
<path d="M363.012 188.445C359.064 188.445 355.019 188.445 351.07 188.445C348.759 188.445 347.507 187.675 347.507 185.17C347.507 178.909 347.122 172.648 347.507 166.387C347.988 159.259 352.996 154.635 361.086 153.286C368.213 152.034 374.184 154.924 377.17 161.185C378.422 163.786 379.288 166.483 379.288 169.373C379.288 174.093 379.385 178.909 379.288 183.629C379.288 188.06 379.192 188.156 374.858 188.253C370.91 188.253 366.865 188.253 362.916 188.253V188.445H363.012Z" fill="#78382D"/>
</svg>
