<svg width="135" height="135" viewBox="0 0 135 135" fill="none" xmlns="http://www.w3.org/2000/svg">
<path d="M72.8221 84.66C72.9091 86.8353 72.4306 89.0105 71.4517 90.9683C69.6897 94.4487 66.4704 96.9502 63.7513 99.7346C57.6388 106.021 53.4841 114.483 45.8271 118.725C43.3256 120.117 40.563 120.965 37.9309 122.14C35.3206 123.314 32.7537 124.881 31.1658 127.252C30.8178 125.925 31.4269 124.533 32.0794 123.336C34.842 118.355 38.9315 114.222 43.3255 110.589C47.6978 106.957 52.4182 103.715 56.8122 100.104C61.054 96.6022 65.0129 92.7303 68.5804 88.5538C69.842 87.0963 71.1037 85.5302 72.8439 84.7036V84.6382L72.8221 84.66Z" fill="#6E7F57"/>
<path d="M63.8182 84.6918C60.0115 84.9528 56.183 85.2573 52.4415 86.0187C43.1314 87.9112 34.2998 92.675 24.7939 92.5227C22.9667 92.5009 21.096 92.2835 19.2905 92.6315C18.0724 92.8708 16.9412 93.3711 15.8101 93.8496C14.0699 94.5892 12.3515 95.3288 10.6113 96.0902C12.83 92.6315 15.9406 89.7601 19.5733 87.8241C20.5957 87.2803 21.6616 86.8018 22.771 86.519C24.6634 86.0405 26.6647 86.1057 28.6224 86.0839C36.1706 85.9534 43.5882 84.1914 51.1146 83.4954C55.4869 83.1038 60.0985 83.1038 63.9705 85.1486" fill="#6E7F57"/>
<path d="M65.5796 87.7007C65.5796 89.1798 64.6007 90.5285 63.4261 91.4421C62.2515 92.3775 60.881 93.0083 59.6629 93.8567C57.8574 95.0966 56.4218 96.7498 54.725 98.1202C51.9842 100.361 48.6778 101.796 45.4149 103.21C39.8462 105.625 34.2558 108.039 28.6871 110.432C25.6418 111.737 22.5964 113.064 19.9425 115.044C18.8984 115.805 17.9413 116.675 17.006 117.567C16.8972 113.412 19.2247 109.519 22.2483 106.669C25.2719 103.819 28.9916 101.84 32.5373 99.7082C35.6045 97.8592 38.5846 95.8797 41.8475 94.4005C44.8928 93.0083 48.1557 92.0947 51.3751 91.2029C55.7692 89.9847 60.1632 88.7448 64.5572 87.5267L65.5578 87.7007H65.5796Z" fill="#6E7F57"/>
<path d="M73.9767 88.4747C75.0426 89.6494 76.1302 90.824 76.8045 92.2597C77.8922 94.5002 77.8487 97.1105 78.3055 99.5468C79.1973 104.267 81.9164 108.444 83.178 113.099C83.9394 115.927 84.1569 118.863 84.3527 121.778L84.9835 131.001C81.6554 128.739 79.7846 124.954 78.1097 121.299C76.2607 117.232 74.477 113.12 73.5634 108.748C72.4322 103.462 72.6063 97.9806 72.7803 92.5859C72.8238 91.346 72.8891 89.9974 73.6722 89.0403L73.955 88.4965L73.9767 88.4747Z" fill="#6E7F57"/>
<path d="M76.1951 87.8986C77.8918 88.1814 79.5667 87.3766 81.1547 86.7022C85.1571 85.0273 89.5947 84.2224 93.9017 84.7445C99.2964 85.3971 104.234 88.0291 109.02 90.6395C106.061 91.2703 103.06 91.8794 100.036 91.7489C96.4685 91.5966 93.0098 90.4002 89.4424 90.4219C86.7451 90.4219 84.0913 91.1615 81.3939 91.205C78.6966 91.2703 75.7382 90.4872 74.2156 88.2684L76.1733 87.8986H76.1951Z" fill="#6E7F57"/>
<path d="M78.6768 89.7755C80.4823 90.167 82.2007 90.9066 83.8757 91.7114C85.4636 92.4728 87.0733 93.3212 88.335 94.5611C90.3362 96.4971 91.4021 99.2596 91.9459 102C92.2504 103.48 92.4245 105.002 92.3375 106.503C92.2722 107.917 91.9677 109.331 91.4891 110.658C91.2716 111.224 91.0323 111.789 90.5755 112.181C90.2492 112.463 89.8359 112.681 89.6619 113.073C90.1187 111.68 90.0317 110.158 89.6401 108.766C89.2486 107.352 88.5743 106.046 87.8564 104.785C87.2909 103.806 86.7035 102.849 85.9422 102.022C85.1156 101.13 84.0932 100.434 83.2666 99.5642C81.5482 97.7587 80.6781 95.3442 79.5687 93.1036C79.2641 92.4728 78.9161 91.842 78.481 91.2764C77.5892 90.1671 76.3275 89.4057 75.1094 88.6879C76.5886 88.7749 78.046 89.2752 79.2859 90.1018" fill="#6E7F57"/>
<path d="M93.7926 39.8628C97.1861 39.6671 100.579 39.4713 103.995 39.2755C104.712 39.232 105.452 39.1885 106.17 39.2755C108.976 39.6236 111.673 41.9293 114.305 40.9505C115.741 40.4284 116.655 39.058 117.808 38.0791C118.634 37.3613 119.744 36.5999 119.635 35.5123C119.504 34.2942 118.025 33.8156 116.807 33.7286C115.654 33.6416 114.479 33.6416 113.327 33.7286C113.218 32.7715 113.696 31.8361 114.175 30.9878C114.653 30.1394 115.132 29.2258 115.001 28.2469C114.871 27.2898 113.805 26.3979 112.957 26.8547C112.674 27.007 112.456 27.2681 112.261 27.5073C110.281 29.8349 107.671 31.6186 104.799 32.6845C106.257 31.2488 106.474 29.0082 106.605 26.9852C106.714 25.332 106.822 23.7006 106.931 22.0474C106.931 21.7646 106.975 21.4818 106.844 21.2208C106.714 20.9815 106.496 20.8293 106.257 20.6988C105.3 20.1332 104.19 19.8069 103.081 19.7416C102.82 19.7416 102.537 19.7417 102.341 19.8939C102.102 20.0897 102.059 20.4377 102.037 20.764C101.95 22.8523 102.037 24.9623 101.711 27.0288C101.406 29.0953 100.623 31.1835 99.1003 32.5975C97.9692 33.6633 96.49 34.2724 95.2283 35.2078C93.9667 36.1214 92.879 37.557 93.0965 39.1015L93.7709 39.8411L93.7926 39.8628Z" fill="#EAD0D6"/>
<path d="M93.294 39.5354C90.1181 40.3185 87.2685 42.4067 85.5718 45.1911C85.202 45.7784 84.8757 46.4309 84.3754 46.9095C83.9186 47.3445 83.3313 47.6056 82.831 47.9971C81.1995 49.324 80.808 51.9126 78.9372 52.8698C79.22 49.3241 77.8931 45.8437 77.8931 42.2762C77.8931 38.7306 79.1983 35.2719 79.1113 31.7262C79.0895 30.6168 78.9155 29.4422 79.2853 28.3763C79.3941 28.0065 79.5898 27.6584 79.6768 27.2886C79.9161 26.3968 79.6116 25.4397 79.6768 24.5043C79.7421 23.5689 80.4817 22.5466 81.3953 22.7641C81.156 26.2228 80.895 29.6814 80.6557 33.1401C81.6781 30.9431 82.5264 28.6373 83.1355 26.3097C83.4836 25.0263 83.7663 23.743 84.3102 22.5466C84.854 21.3502 85.7023 20.219 86.877 19.6534C86.6595 21.0891 86.4637 22.5248 86.2461 23.9605C86.1591 24.6131 86.0504 25.2874 85.8328 25.9182C85.6153 26.5273 85.289 27.0711 84.9627 27.6367C81.0908 34.467 79.3505 42.4937 80.0901 50.3029C81.9391 47.6056 83.9404 45.0388 85.9199 42.4502C87.5731 40.2967 89.248 38.1649 91.0752 36.1637C91.9453 35.2283 92.8372 34.293 93.555 33.2488C94.2946 32.1612 94.8384 30.9648 95.143 29.6814C95.4257 28.5068 95.5128 27.2452 96.0348 26.1575C96.5569 25.0481 97.6663 24.091 98.8627 24.265C98.3624 25.2656 97.8403 26.2662 97.34 27.2669C96.4916 28.9418 95.6215 30.6386 94.5774 32.2048C93.0982 34.4018 91.2275 36.3812 90.2269 38.8393C91.619 38.3607 92.9895 37.8822 94.3816 37.4036C94.4904 37.5994 94.5121 37.8387 94.4034 38.0344C94.6209 38.2085 94.9037 38.3172 95.1865 38.3607L93.2722 39.5572L93.294 39.5354Z" fill="#9B5535"/>
<path d="M80.9379 24.2288C81.5252 21.7055 84.0485 20.0958 85.2014 17.7683C86.1585 15.8323 86.115 13.5483 86.028 11.3948C85.941 8.93671 85.8539 6.43517 85.1144 4.06413L84.5488 5.19524L83.9832 3.99884C82.9609 4.95596 82.2865 6.21761 81.6992 7.50102C79.2847 12.8739 78.6321 19.0299 79.8285 24.7944C80.046 24.7944 80.2635 24.7726 80.4593 24.7726L80.8944 24.2506L80.9379 24.2288Z" fill="#EAD0D6"/>
<path d="M70.1931 48.5498C73.6518 48.8325 77.1322 48.9631 80.5909 48.9196C81.2435 48.9196 81.9396 48.8978 82.5487 48.615C83.1577 48.3322 83.658 47.7449 83.5928 47.0706C83.5493 46.679 83.3535 46.331 83.136 46.0047C81.7003 43.7207 80.2864 41.4367 78.8507 39.1527C78.5027 38.6089 78.1111 37.9998 77.4803 37.8475C76.5667 37.6082 75.7401 38.3913 75.1963 39.1527C74.4784 40.1098 73.8694 41.1539 73.3473 42.2415C73.0645 42.8288 72.8252 43.4379 72.3684 43.9165C71.9116 44.3951 71.1938 44.6778 70.6064 44.4168C71.5853 40.5883 72.9122 36.8686 74.5437 33.2794C74.7612 32.8009 75.0005 32.3006 75.044 31.7785C75.1528 30.7344 74.5002 29.712 73.6301 29.1029C72.76 28.4938 71.6941 28.2545 70.6717 28.0805C68.9967 27.7977 67.2783 27.689 65.5598 27.7325C65.2118 27.7325 64.842 27.776 64.5157 27.9065C63.7761 28.2328 63.4498 29.1029 63.3193 29.886C62.993 31.8003 63.3193 33.845 64.2982 35.5417C65.3423 37.3907 67.1261 39.0439 67.1043 41.1756C65.7991 41.4149 64.9725 39.8705 64.4069 38.6741C63.167 36.0638 61.1005 33.8668 58.5555 32.4964C57.7941 32.0831 56.9023 31.735 56.0975 32.0831C54.6836 32.6921 54.8358 34.7151 54.2049 36.129C53.5741 37.5647 51.9862 38.5654 51.8339 40.1098C51.7034 41.5237 52.8998 42.7636 54.2267 43.2857C55.5536 43.8077 57.011 43.8077 58.425 44.0252C59.8389 44.2645 61.3181 44.8083 62.0359 46.0482C59.3168 46.2657 56.5977 46.7226 53.9439 47.3752C52.9868 47.6144 51.9862 47.8972 51.2248 48.528C50.4417 49.1371 49.9197 50.1812 50.2025 51.1383C50.3547 51.7039 50.768 52.1607 51.1596 52.574C52.5953 54.0749 54.2702 55.3584 56.1192 56.3372C57.0981 56.8593 58.2727 57.3161 59.3168 56.9028C60.8613 56.2937 61.1441 54.2272 62.1882 52.9221C62.6885 52.2912 63.3846 51.8562 63.9501 51.2688C64.5157 50.7033 64.9508 49.8984 64.7768 49.1153C65.0378 48.4628 66.0602 48.4845 66.5387 48.9848C67.0173 49.4851 67.1043 50.2465 67.0825 50.9426C67.0608 52.661 66.6692 54.3577 66.8215 56.0544C67.0173 58.295 68.3007 60.492 70.3454 61.4056C70.4542 61.4491 70.5629 61.4926 70.6717 61.4926C70.7805 61.4926 70.8892 61.4056 70.998 61.3403C72.8687 59.9482 74.3044 57.9251 74.9787 55.6846C75.2398 54.8363 75.5008 53.8139 76.3057 53.4659C76.4579 53.4006 76.6319 53.3571 76.7624 53.2266C77.1105 52.8568 76.6537 52.2695 76.2186 52.052C75.2833 51.5734 74.1956 51.4429 73.2385 51.0078C72.2814 50.5728 71.3678 49.6809 71.4766 48.6368L70.1931 48.4845V48.5498Z" fill="#EAD0D6"/>
<path d="M73.8917 77.196C75.6537 77.7398 77.4374 76.5434 78.8513 75.3688C80.2652 74.1941 81.9184 72.9107 83.7239 73.237C84.6157 75.0207 85.0725 77.0002 85.0508 79.0014C85.0508 79.3712 85.029 79.7628 84.855 80.0891C84.6375 80.4806 84.2459 80.7417 83.8544 80.9592C80.6132 82.6342 76.7195 81.9598 73.1521 81.2202C73.1521 82.0033 73.9134 82.5472 74.5878 82.9169C75.6971 83.5478 76.8283 84.2004 77.9377 84.8312C79.3299 85.6143 80.722 86.4191 82.2229 86.9412C82.7232 87.1152 83.2453 87.2675 83.6586 87.5938C84.6157 88.3551 84.681 89.856 84.0719 90.9219C83.4846 91.9878 82.397 92.6621 81.2876 93.2059C80.1129 93.7715 78.873 94.2065 77.5896 94.5111C76.589 94.7504 75.4796 94.8809 74.5442 94.424C73.5654 93.9455 73.0216 92.8797 72.717 91.8355C72.195 90.0518 72.2167 88.1376 71.9774 86.2886C71.7382 84.4396 71.1509 82.5036 69.6934 81.329C68.9321 83.2432 68.6058 85.3315 68.6928 87.3762C68.7798 89.0947 69.1061 91.0089 68.0837 92.4011C67.3876 93.3582 66.1912 93.815 65.0166 93.8802C63.8419 93.9237 62.6891 93.6192 61.5797 93.2277C60.2963 92.7926 59.0564 92.2488 57.86 91.6397C57.512 91.4657 57.1639 91.27 56.9464 90.9437C56.4678 90.1823 56.9899 89.2035 57.5337 88.4856C59.7524 85.5708 62.3628 82.9604 65.2777 80.7634C65.604 80.5241 65.9302 80.2631 66.0607 79.8933C66.2565 79.306 65.8649 78.6534 65.2994 78.4141C64.7556 78.1531 64.103 78.2184 63.5156 78.3489C62.4063 78.6099 61.3839 79.1755 60.5791 79.9586C60.231 80.2848 59.8177 80.6982 59.3392 80.6112C59.0999 80.5677 58.9041 80.4154 58.7301 80.2631C56.6201 78.3489 56.5983 75.086 56.7506 72.2146C56.7941 71.4968 56.8376 70.7354 57.2726 70.1699C57.5772 69.7783 58.0123 69.539 58.4691 69.4085C60.4268 68.8429 62.428 70.1264 63.9942 71.4533C65.5604 72.7802 67.2571 74.2811 69.3019 74.2594C69.6934 72.4539 69.7804 70.5832 69.5194 68.756C69.3019 67.2333 68.9756 65.4061 70.1285 64.4054C70.8028 63.8181 71.7817 63.7529 72.6735 63.7311C73.6089 63.7311 74.5443 63.7094 75.4796 63.7311C76.2192 63.7311 77.0023 63.7746 77.6114 64.1879C78.9165 65.1015 78.5903 67.1027 77.9377 68.5384C76.6325 71.3663 74.479 74.0201 74.5008 77.1525L73.8917 77.196Z" fill="#EAD0D6"/>
<path d="M90.2952 64.8041C90.0342 65.3914 90.5997 66.0005 91.1653 66.305C93.3841 67.5667 96.0814 67.3927 98.6482 67.4145C99.6706 67.4145 100.715 67.458 101.65 67.8495C104.13 68.8937 104.978 72.5481 103.216 74.5711C102.194 75.7457 100.606 76.2678 99.0615 76.5506C96.5817 76.9856 93.6887 76.7463 92.079 74.8321C90.9261 73.4617 90.6215 71.4822 89.2728 70.3293C88.7943 69.9377 88.1852 69.6114 87.9895 69.0241C87.8589 68.5891 87.9895 68.1105 87.9242 67.6537C87.8589 67.1969 87.3804 66.7184 86.9888 66.9577C86.7495 67.0882 86.706 67.3927 86.6843 67.6755C86.2492 71.4822 86.706 75.3759 88.0112 78.9651C88.1852 79.4437 88.381 79.9657 88.3375 80.466C88.2505 81.9235 86.5538 82.6413 85.1399 82.9676C84.335 83.1416 83.5084 83.3157 82.7253 83.0764C81.79 82.7936 81.0939 81.9887 80.1803 81.6189C79.2014 81.2056 78.0702 81.3796 77.0044 81.3796C75.9385 81.3796 74.7421 81.1839 74.1113 80.3137C73.2194 79.0521 74.0895 77.2466 75.2859 76.2895C76.5041 75.3324 78.0268 74.8103 79.0926 73.7009C79.7235 73.0484 80.1368 72.2436 80.5501 71.4387L83.2039 66.3268C82.1598 65.9788 81.0504 66.3268 80.028 66.6966C77.3742 67.6102 74.7421 68.5456 72.0883 69.4592C71.7185 69.5897 71.3487 69.7202 70.9571 69.7202C70.0653 69.742 69.2387 69.1329 68.7166 68.3933C68.1945 67.6538 67.89 66.7836 67.455 66.0005C67.3462 65.783 67.2157 65.5872 67.1939 65.3479C67.1721 65.0434 67.3244 64.7606 67.4767 64.4778C68.2815 63.0639 69.0864 61.6283 69.8912 60.2143C70.1088 59.8228 70.348 59.4095 70.7396 59.1702C71.0441 58.9962 71.3922 58.9309 71.7402 58.8874C73.5457 58.6481 75.4164 58.8439 77.1349 59.4312C79.1361 60.1055 81.0286 61.3237 83.1386 61.2149C83.2039 60.3231 82.0945 59.9098 81.2461 59.627C79.8322 59.1484 78.5488 58.2566 77.6352 57.082C77.3089 56.6687 77.0261 56.1684 77.1131 55.668C77.2001 55.059 77.7657 54.6674 78.2008 54.2541C79.1796 53.3188 79.7452 52.0571 80.5065 50.9259C81.2679 49.7948 82.3773 48.7507 83.7259 48.7289C85.6619 48.6854 87.0106 50.752 87.3151 52.6879C87.6197 54.6022 87.3151 56.6251 87.9024 58.4741C88.0329 58.8656 88.207 59.279 88.5115 59.54C89.2076 60.1056 90.2952 59.8446 90.9478 59.2137C91.6004 58.5829 91.9267 57.7127 92.34 56.9079C92.7533 56.103 93.3406 55.2983 94.2107 55.059C94.7763 54.885 95.3853 54.9937 95.9727 55.1242C97.8869 55.581 99.6924 56.4729 101.237 57.7128C101.498 57.9303 101.759 58.1478 101.933 58.4524C102.324 59.192 101.933 60.1491 101.28 60.6711C100.628 61.1932 99.8011 61.4107 98.9963 61.6282C96.1467 62.4331 93.4058 63.586 90.8608 65.0869C91.0131 65.4567 91.2523 65.783 91.5786 66.044L90.2735 64.7824L90.2952 64.8041Z" fill="#DEB9BF"/>
<path d="M110.02 52.7741C111.978 53.666 114.197 53.9923 116.329 53.666C117.547 53.4702 118.721 53.1004 119.94 52.9917C121.158 52.8829 122.485 53.1004 123.376 53.9488C124.921 55.4497 124.399 58.0165 123.768 60.083C123.572 60.6921 123.398 61.2794 123.05 61.8232C122.354 62.9326 121.136 63.5852 119.961 64.1726C119.026 64.6511 118.025 65.1514 116.959 65.1079C115.611 65.0644 114.458 64.1725 113.501 63.2154C111.043 60.8009 109.128 57.8208 108.019 54.5579C107.214 55.4932 107.105 56.8636 107.279 58.0818C107.475 59.2999 107.91 60.4746 108.063 61.7145C108.106 62.0625 108.106 62.4541 107.91 62.7369C107.584 63.1719 106.931 63.1502 106.388 63.0849C104.8 62.8891 103.168 62.6934 101.733 61.9755C100.297 61.2794 99.0352 59.9525 98.8612 58.3646C98.6002 56.1023 100.427 54.1663 102.102 52.6219C102.929 51.8606 103.777 51.0774 104.604 50.3161C102.211 50.3161 99.8184 50.5989 97.5126 51.1644C97.121 51.2515 96.7077 51.3602 96.3162 51.2297C95.6636 51.0122 95.3373 50.2509 95.3155 49.5548C95.2938 48.8587 95.4461 48.1626 95.3155 47.4665C94.9892 45.5305 92.5965 44.3994 92.4224 42.4416C92.4007 42.1153 92.4442 41.7456 92.7052 41.528C92.8575 41.3975 93.0533 41.354 93.249 41.3105C96.2292 40.6579 99.492 41.4845 101.776 43.5293C103.038 44.6386 104.06 46.1396 105.626 46.7487C107.018 43.0725 103.234 39.3093 103.516 35.4156C103.538 35.0893 103.603 34.763 103.799 34.5237C103.973 34.3279 104.234 34.2192 104.473 34.1104C105.235 33.8059 105.996 33.5448 106.779 33.3056C107.279 33.1533 107.845 33.0228 108.324 33.2403C108.759 33.4143 109.041 33.8276 109.433 34.0668C110.738 34.7847 112.783 33.4143 113.653 34.5889C113.892 34.9152 113.936 35.3067 113.979 35.6983C114.153 37.221 114.306 38.8089 113.871 40.2664C113.022 43.0724 110.064 45.0955 109.912 48.0321C111.064 47.162 112.043 46.0526 112.739 44.7909C113.348 43.6816 113.784 42.4634 114.567 41.4845C115.981 39.7225 118.569 39.0265 120.679 39.8096C122.789 40.6144 124.268 42.8549 124.181 45.0954C124.16 45.8568 123.942 46.6182 123.442 47.1837C123.072 47.597 122.55 47.8798 122.05 48.1191C118.286 49.9898 114.327 51.469 110.26 52.5131L110.02 52.7306V52.7741Z" fill="#DEB9BF"/>
<path d="M71.4771 79.6983C71.7382 81.0034 72.4995 82.2651 72.2602 83.592C72.0427 83.3092 71.9122 83.0047 71.7599 82.6784C71.2813 81.6342 70.8028 80.5684 70.7593 79.4372C70.172 79.3067 69.6064 79.7635 69.1931 80.1986C68.7798 80.6554 68.3447 81.1774 67.7356 81.2427C67.5181 80.8294 67.9967 80.4161 68.3665 80.155C68.8233 79.8288 69.2149 79.4373 69.5411 78.9805C69.6064 78.8717 69.6716 78.7629 69.6499 78.6324C69.6281 78.5454 69.5411 78.4801 69.4759 78.4366L67.0613 76.6747C67.9749 76.8487 68.8886 77.0227 69.8022 77.1749C70.0197 77.2185 70.2807 77.262 70.4765 77.1315C70.694 76.9792 70.7593 76.6746 70.8245 76.4354C70.9986 75.7393 71.4771 75.1302 72.0862 74.7604C72.4995 75.4783 71.4336 76.3049 71.5859 77.1315C72.1079 76.8922 72.63 76.6746 73.1738 76.4354C72.9781 76.7617 72.7605 77.1097 72.6953 77.5012C72.63 77.8928 72.7605 78.3278 73.0868 78.5454C73.2173 78.6324 73.3914 78.6759 73.5436 78.7194C74.1962 78.8935 74.8488 79.0457 75.5013 79.2197C74.6965 79.4372 73.8264 79.4808 73.0215 79.3067C72.7605 79.2632 72.5213 79.1979 72.2602 79.2197C71.9992 79.2415 71.7381 79.4155 71.6946 79.6765" fill="#BA5A6C"/>
<path d="M87.2665 64.1258C87.8756 65.0394 88.4412 65.9966 88.9415 66.9754C88.3324 66.9319 87.9844 66.3011 87.5928 65.8443C87.2883 65.4528 86.875 65.1482 86.4399 64.9307C86.3312 64.8654 86.2006 64.822 86.0701 64.8437C85.7656 64.8655 85.6133 65.2135 85.5046 65.4963C85.1783 66.4099 84.7432 67.3017 84.2429 68.1283C84.1342 68.2806 83.9601 68.4764 83.7861 68.3894C83.5686 67.9543 83.7861 67.454 84.0254 67.0407C84.3734 66.3663 84.7432 65.692 85.0913 65.0177C84.0036 64.9959 82.916 64.9742 81.8284 64.9307C81.6761 64.9307 81.5238 64.9307 81.4151 64.8437C81.3063 64.7567 81.2411 64.5826 81.3498 64.4739C82.5245 64.4739 83.7208 64.3651 84.8737 64.0824C85.0042 64.0606 85.1348 64.0171 85.2218 63.9083C85.3305 63.7778 85.3088 63.5603 85.2653 63.3863C85.0913 62.5814 84.8955 61.7766 84.7215 60.95C85.5263 61.5373 85.5046 62.9294 86.4182 63.2992C86.5052 62.2986 86.6575 61.3198 86.8967 60.3627C87.049 61.4068 87.1142 62.4292 87.1142 63.4733C88.0279 63.4733 88.9415 63.4733 89.8551 63.4515C89.0503 63.9736 88.0714 64.2346 87.0925 64.1911" fill="#BA5A6C"/>
<path d="M106.283 52.5757C107.284 53.076 108.284 53.5763 109.285 54.0766C109.35 53.7503 108.959 53.5545 108.633 53.4675C108.241 53.3588 107.849 53.25 107.545 52.9672C107.262 52.7062 107.11 52.2276 107.327 51.8796C107.523 51.5968 107.871 51.5098 108.197 51.4445C109.285 51.1835 110.329 50.792 111.33 50.2699C110.286 49.9653 109.329 50.8572 108.284 51.1618C107.784 51.314 107.132 51.227 106.936 50.7702C106.849 50.5527 106.871 50.3351 106.936 50.1176C107.24 48.9647 108.393 48.0729 108.371 46.8983C108.067 47.6596 107.675 48.3774 107.197 49.0517C107.088 49.2258 106.958 49.3781 106.784 49.4868C106.24 49.8131 105.587 49.378 105.13 48.9647C104.521 48.4427 103.934 47.9206 103.325 47.3985C103.325 47.9858 103.912 48.3774 104.391 48.7255C104.848 49.0518 105.283 49.4433 105.522 49.9436C105.783 50.4439 105.826 51.0747 105.522 51.5533C105.326 51.9013 104.978 52.1406 104.717 52.4452C104.456 52.7497 104.304 53.2065 104.543 53.5546C104.674 53.163 104.804 52.7497 105.109 52.4886C105.413 52.2276 105.935 52.1406 106.218 52.4452L106.283 52.5974V52.5757Z" fill="#BA5A6C"/>
<path d="M70.0198 45.5072C70.7376 45.79 71.3684 46.2686 71.8252 46.8994C71.0203 46.4644 70.1068 46.1816 69.1931 46.0728C69.0409 46.0728 68.9104 46.0511 68.7798 46.0946C68.6276 46.1599 68.5188 46.3121 68.4318 46.4426C67.8445 47.3997 67.4094 48.4656 67.1484 49.5533C66.8439 49.6185 66.7351 49.1617 66.7786 48.8572C66.9091 47.9653 67.1919 47.0734 67.5835 46.2686C65.9738 45.8335 64.2771 46.0728 62.6239 46.3121C63.8855 45.5725 65.3647 45.2462 66.8003 45.3767C66.8874 44.7241 66.3435 44.1368 65.778 43.767C65.2124 43.3973 64.5816 43.071 64.277 42.4836C65.4299 42.7447 66.5393 43.2667 67.453 44.0063C67.7575 44.2456 68.149 44.5284 68.5188 44.4196C69.0409 44.2456 68.9974 43.4842 68.9974 42.9187C68.9974 42.0051 69.4107 41.0915 70.1068 40.5042C69.998 41.8963 69.737 43.2667 69.3454 44.5937L69.998 45.4855L70.0198 45.5072Z" fill="#BA5A6C"/>
</svg>
