<svg width="135" height="135" viewBox="0 0 135 135" fill="none" xmlns="http://www.w3.org/2000/svg">
<path d="M29.1381 36.1099C29.4224 34.2714 31.3556 33.5702 32.0759 32.1297C29.8204 31.8265 32.9477 30.784 33.63 30.1586C30.6733 28.6991 34.1797 27.9221 36.1698 27.2777C36.1698 22.3119 33.5163 24.9274 36.9658 19.9996C37.1554 17.9526 27.8682 11.1484 35.9992 10.2007C34.5398 4.95061 41.0787 12.9489 39.8657 6.10677C40.2827 6.27735 42.1401 7.58512 42.4054 7.81256C42.576 6.41001 42.8793 7.20605 43.41 7.94523C42.993 5.29177 41.1545 5.00747 44.4335 6.48583C44.206 4.45783 45.3243 5.86037 46.0824 6.86489C46.4046 4.17352 47.7882 6.78909 48.9064 8.19164C48.8306 5.51922 50.2521 6.04991 51.503 8.19164C54.7251 12.494 51.6547 0.553437 55.2369 4.72317C57.4733 6.77013 58.5537 3.33958 59.3118 8.04001C63.3489 2.42982 59.5961 15.1665 64.2397 9.80267C65.4906 12.7783 64.5809 13.8208 63.8227 16.152C71.423 14.3704 64.8462 21.7433 59.8994 21.042C58.2504 22.3119 57.6629 23.2216 57.7197 23.7902C60.9418 22.7099 68.7506 19.412 69.6604 18.1421C69.5466 18.6918 69.414 19.4499 69.414 19.4499L59.8615 24.681C61.9084 24.681 64.9031 23.8661 66.5141 22.7478C63.1404 25.098 76.1993 24.3967 68.5611 27.3345C68.4094 27.9979 75.4411 32.6225 70.2479 32.0728C74.4935 35.5982 70.3806 34.9917 70.7217 39.4078C67.2912 39.1993 64.8462 34.4989 65.5096 40.545C62.3254 36.5269 65.6422 44.2219 63.1404 47.5956C59.8615 42.8383 60.6006 46.0415 57.7197 50.4197C55.9192 44.2219 54.5924 54.0587 53.5121 49.491C47.8451 54.8548 49.0391 44.9801 48.1862 41.8717C46.7647 43.1985 46.1203 45.6055 45.7223 42.4782C44.1681 44.1461 43.9028 43.7481 40.946 43.9376C44.6609 34.044 32.3981 46.648 35.9045 37.6072C28.6832 41.1704 36.4731 37.0955 29.0813 36.1478" fill="#17603F"/>
<path d="M69.7748 17.9595C69.7748 17.9595 69.7369 18.0732 69.68 18.149C69.7748 17.6373 69.8506 17.3151 69.7748 17.9595Z" fill="#17603F"/>
<path d="M55.0033 109.928C62.2814 101.153 78.259 109.663 68.0621 119.576C62.8121 125.072 47.403 116.752 55.0033 109.928Z" fill="#272A5D"/>
<path d="M41.6676 79.2049C42.7669 76.2671 45.6099 73.9927 47.9033 72.1163C56.0532 68.9132 51.7129 70.3726 46.5955 69.5576C48.3771 68.9132 45.1171 68.7237 45.572 67.359C45.174 67.5675 44.5675 67.8708 44.4727 67.2832C44.0937 65.2552 41.497 63.6631 44.2074 62.886C43.0323 63.1893 41.7624 62.3743 43.1081 61.1234C43.146 60.4979 42.0088 60.6116 42.4826 59.8345C42.2362 56.2713 44.757 53.8453 47.7706 52.2911C49.3058 51.116 54.0252 51.6846 53.8736 50.699C52.907 51.4382 52.6795 49.0122 51.8835 48.8226C49.8934 47.8371 51.8266 45.828 51.0116 44.5392C50.6705 44.1601 50.6515 43.7621 51.0685 43.4399C54.0063 37.0147 60.6968 37.1474 64.9234 41.0328C68.9225 42.8902 66.3828 49.486 67.8232 48.8606C67.8801 48.69 67.9938 48.5952 68.1454 48.5384C68.3729 48.5763 68.5814 48.5763 68.752 48.4246C71.8793 42.4354 83.1375 46.0176 83.365 54.8688C84.9192 50.5095 89.3163 50.7748 83.3271 49.069C80.5978 47.1548 78.6835 43.8379 79.2711 40.3316C79.1573 38.9101 82.3036 31.8973 82.4173 34.9109C82.4931 34.8919 82.5689 34.8919 82.6637 34.873C86.7766 21.1508 108.194 40.7106 96.5186 48.1214C99.4943 50.9644 102.299 57.1621 99.3047 61.9573C95.135 68.6857 89.9797 60.6685 91.6476 66.8094C91.1738 73.6515 92.3678 67.3022 95.6088 68.4773C103.626 69.5955 110.032 83.5831 102.697 87.7718C103.702 89.1364 97.4473 91.3919 97.1441 89.7619C97.9591 93.4767 99.3616 102.707 91.2685 103.332C90.245 103.37 85.7531 101.854 87.4968 104.11C91.4012 107.786 87.2315 113.871 82.8532 115.084C80.4083 116.183 78.5129 112.847 76.0869 113.871C73.3766 116.164 73.4334 112.544 72.1636 110.99C69.8512 105.323 76.2575 99.845 77.8685 94.7276C77.9633 93.8747 79.7638 88.7953 78.8351 89.1175C77.6221 89.326 73.7177 87.8286 74.5327 90.0082C78.6266 101.285 59.1805 112.203 56.5839 98.1013C50.2535 92.4532 62.2889 91.8467 47.0504 87.1463C43.8473 85.9522 42.2173 82.3701 41.7055 79.2238M59.7112 59.4176C59.7112 59.4176 59.7112 59.5881 59.6733 59.664C59.7112 59.5881 59.6923 59.4934 59.7302 59.3986M59.1995 60.1757C59.1995 60.1757 59.3321 60.0999 59.389 60.062C59.3321 60.0999 59.2753 60.1378 59.1995 60.1757ZM57.2662 67.776C57.2662 67.776 57.342 67.7381 57.361 67.7191C57.3231 67.7191 57.2852 67.757 57.2662 67.776ZM54.3474 69.4249C54.3474 69.4249 54.3095 69.4439 54.2906 69.4628C54.3095 69.4628 54.3285 69.4439 54.3664 69.4249H54.3474ZM46.0648 66.3355C46.0079 65.5016 45.3067 66.3355 45.3446 66.8283C45.7426 66.7904 46.0459 66.7525 46.0648 66.3355ZM65.5678 52.4427C65.5678 52.4427 65.5678 52.4996 65.492 52.5375C65.5678 52.4996 65.5868 52.4617 65.5678 52.4427ZM66.288 42.4164C66.288 42.4164 66.3828 42.5681 66.4207 42.6439C66.3828 42.5681 66.3449 42.4922 66.288 42.4164ZM67.7095 60.0809C67.7095 60.0809 67.7474 60.0809 67.7664 60.0809C67.7664 60.0809 67.7285 60.0809 67.7095 60.0809ZM67.5769 59.9104C67.5769 59.9104 67.5769 59.9483 67.5769 59.9862C67.5769 59.9672 67.5769 59.9483 67.5769 59.9104ZM68.3918 60.1946L68.3539 60.1567C66.1364 60.7443 64.26 56.4419 64.7907 54.0159C66.6481 50.0167 63.1039 53.6368 61.2275 53.6558C66.2312 58.1856 61.3981 65.4826 57.8727 68.4773C59.4648 69.804 62.4215 62.886 65.6815 62.3743C67.501 62.0142 70.0787 63.4736 71.2727 64.7435C71.7466 64.933 72.0498 66.146 72.5237 65.2552C72.5237 65.2552 72.6753 65.1225 72.7322 65.0467C72.6753 65.1225 72.5805 65.1983 72.5237 65.2552C72.6943 64.1938 73.5092 63.2841 73.8694 62.4122C72.7322 62.0521 71.2917 61.8057 70.4578 60.9528C68.9794 61.7678 69.529 60.1757 68.4108 60.1946M61.9098 97.9308C61.9098 97.9308 61.9667 97.8739 61.9856 97.836C61.9477 97.8739 61.9288 97.8928 61.9098 97.9308ZM83.2702 105.474C83.0807 105.55 83.0049 106.213 82.7206 105.55C83.0049 106.194 83.0996 105.55 83.2702 105.474ZM74.1347 62.4311C74.1347 62.4311 74.0778 62.4311 74.0399 62.4311C74.0778 62.4311 74.1158 62.4311 74.1347 62.4311ZM75.3667 46.0176C74.9687 45.8659 74.5517 45.8659 74.0589 45.847C74.5517 45.8849 74.9687 45.8849 75.3667 46.0176ZM75.3667 46.0176C75.3667 46.1502 75.3288 46.2829 75.3098 46.3966C75.3098 46.2639 75.3477 46.1313 75.3667 46.0176ZM75.2719 46.6241C75.2719 46.6241 75.2719 46.5103 75.2909 46.4345C75.2909 46.4914 75.2909 46.5483 75.2719 46.6241ZM75.2719 46.8705C75.2719 46.8705 75.2719 46.7188 75.2719 46.662C75.2719 46.7378 75.2719 46.8136 75.2719 46.8705ZM79.7828 69.7661C79.9155 69.785 80.0481 69.8419 80.0861 69.9746C80.0481 69.804 79.8018 69.7092 79.6501 69.804C79.688 69.785 79.7449 69.7661 79.8017 69.7661M80.3135 80.6643C80.3135 80.6643 80.2566 80.6074 80.2187 80.5884C80.3135 80.7022 80.3704 80.6264 80.4272 80.5316C80.3893 80.5695 80.3514 80.6264 80.3135 80.6643ZM82.967 73.6136C82.948 73.5757 82.9291 73.5189 82.967 73.6136V73.6136ZM83.5924 63.2272C83.5924 63.2272 83.5924 63.2272 83.6114 63.2272C83.6114 63.2272 83.6114 63.2272 83.5924 63.2272ZM83.6682 63.2461C83.6682 63.2461 83.6682 63.2461 83.6872 63.2461C83.6872 63.2461 83.6872 63.2461 83.6682 63.2461ZM83.744 63.2841H83.763C83.763 63.2841 83.763 63.2841 83.744 63.2841ZM83.1754 63.5494C83.1754 63.4546 83.1754 63.3409 83.1754 63.2272C83.1754 63.3599 83.1754 63.4546 83.1754 63.5494ZM83.4029 59.3607C83.4029 59.3607 83.4977 59.3228 83.5356 59.3039C83.4977 59.3228 83.4408 59.3418 83.4029 59.3607ZM77.3947 49.2017C77.5274 49.1259 77.6979 49.069 77.8496 48.9743C77.7169 49.069 77.5463 49.1259 77.3947 49.2017ZM78.0391 48.8226C78.0391 48.8226 78.0012 48.8606 77.9822 48.8795C78.0012 48.8606 78.0201 48.8416 78.0391 48.8226ZM77.9443 48.8985C77.9443 48.8985 77.8875 48.9364 77.8685 48.9553C77.8875 48.9553 77.9254 48.9174 77.9443 48.8985ZM78.1339 48.7089C78.1339 48.7089 78.0959 48.7658 78.077 48.7847C78.0959 48.7658 78.1149 48.7279 78.1339 48.7089ZM78.2097 48.5384C78.2097 48.5384 78.1718 48.6331 78.1528 48.671C78.1718 48.6331 78.1907 48.5952 78.2097 48.5384ZM76.1438 45.8849C75.9542 45.9038 75.8026 45.9228 75.6699 45.9417C75.8026 45.9417 75.9542 45.9038 76.1438 45.8849ZM83.1186 63.8526C83.1186 63.8526 83.1186 63.8716 83.1186 63.8906C83.1186 63.8906 83.1186 63.8906 83.1186 63.8526ZM83.1565 63.5873C83.1565 63.5873 83.1565 63.6442 83.1565 63.6631C83.1565 63.6442 83.1565 63.6063 83.1565 63.5873ZM83.1565 63.7389C83.1565 63.7389 83.1565 63.7768 83.1565 63.7958C83.1565 63.7958 83.1565 63.7579 83.1565 63.7389ZM73.3576 74.5423C70.5525 74.7698 68.4487 79.0722 65.7763 74.7129C65.6436 76.722 65.5299 80.5695 65.7384 82.2943C68.6572 83.0334 67.4631 83.5262 68.4866 80.7211C69.1121 78.0108 70.9505 76.0207 73.3576 74.5613M71.0264 65.2173C71.0264 65.2173 71.0264 65.2173 71.0264 65.2362C71.0264 65.2362 71.0264 65.2362 71.0264 65.2173ZM71.2159 64.8193C71.178 64.933 71.1022 65.0467 71.0453 65.1604C71.0832 65.0467 71.178 64.933 71.2159 64.8193ZM72.3152 65.6153C72.3152 65.6153 72.4289 65.5395 72.4479 65.4826C72.4289 65.5395 72.391 65.5774 72.3152 65.6153ZM68.3539 83.1282C68.3539 83.1282 68.335 83.1661 68.316 83.1851C68.316 83.1851 68.335 83.1472 68.3539 83.1282ZM68.4108 85.1941C68.1075 84.5686 68.316 84.853 68.4297 85.3268C68.4297 85.2889 68.4297 85.232 68.4108 85.1941ZM68.5056 80.759C68.5056 80.759 68.5814 80.7211 68.5814 80.6832C68.5814 80.7022 68.5435 80.7211 68.5056 80.759ZM64.279 96.6419C64.279 96.6419 64.3737 96.604 64.4116 96.5851C64.3737 96.604 64.3169 96.623 64.279 96.6419ZM70.3819 60.877C70.3819 60.877 70.3061 60.7633 70.2303 60.7633C70.3061 60.7633 70.344 60.8012 70.3819 60.877ZM74.0399 45.8849C74.0399 45.8849 73.9073 45.8849 73.8315 45.8849C73.9073 45.8849 73.9831 45.8849 74.0399 45.8849ZM75.3288 46.0176C75.3288 46.0176 75.3477 46.0555 75.3667 46.0555C75.3667 46.0555 75.3477 46.0176 75.3288 46.0176ZM75.215 45.8849C75.215 45.8849 75.215 45.8849 75.215 45.9038C75.215 45.9038 75.215 45.9038 75.215 45.8849ZM75.2719 45.9607C75.2719 45.9607 75.2719 45.9796 75.2909 45.9986C75.2909 45.9986 75.2909 45.9797 75.2719 45.9607ZM75.3667 46.0744C75.3667 46.0744 75.4804 46.0744 75.5183 46.0555C75.4614 46.0555 75.4046 46.0555 75.3667 46.0744ZM82.3415 35.2331C82.3415 35.2331 82.3415 35.1573 82.3415 35.1383C82.3415 35.1763 82.3415 35.1952 82.3415 35.2331ZM82.3415 35.0625C82.3415 35.0625 82.3415 35.0436 82.3605 35.0246C82.3605 35.0246 82.3604 35.0436 82.3415 35.0625ZM82.3794 35.0246C82.3794 35.0246 82.3984 35.0246 82.4173 35.0057C82.4173 35.0057 82.3984 35.0057 82.3794 35.0246ZM47.9791 87.2221C47.7327 87.26 47.4484 87.1273 47.221 87.1652C47.4674 87.1273 47.7327 87.26 47.9791 87.2221Z" fill="#272A5D"/>
<path d="M66.3834 124.333C77.092 104.356 91.4208 127.441 76.8836 131.175C73.0171 130.682 64.1469 130.133 66.3834 124.333ZM77.6796 117.965C77.6796 117.965 77.5848 117.965 77.528 117.965C77.5659 117.965 77.6227 117.965 77.6796 117.965ZM75.6326 118.135L75.6137 118.173C75.6137 118.173 75.6326 118.154 75.6326 118.135ZM75.7653 118.723C75.7653 118.723 75.8411 118.723 75.898 118.704C75.8411 118.704 75.8032 118.723 75.7653 118.723ZM72.9792 128.465C72.9792 128.465 73.0739 128.427 73.1118 128.408C73.0739 128.427 73.0171 128.446 72.9792 128.465ZM74.3248 118.458C74.3248 118.458 74.3248 118.42 74.3248 118.401C74.3248 118.42 74.3248 118.439 74.3248 118.458ZM74.3248 118.23C74.3248 118.23 74.3248 118.154 74.3248 118.116C74.3248 118.192 74.3248 118.268 74.3248 118.344C74.3248 118.306 74.3248 118.268 74.3248 118.23Z" fill="#272A5D"/>
<path d="M61.1728 36.9672C62.291 34.5981 64.9824 33.5177 65.9301 31.0538C66.8398 29.2532 67.0673 32.1152 69.3227 28.3814C70.0429 26.8461 68.3561 24.5528 69.6828 23.4535C69.209 23.2071 69.9103 22.5627 69.2848 22.3542C69.1332 22.2973 69.1142 22.0699 69.19 21.9372C70.0619 20.5726 68.5077 18.9236 69.4743 17.54C68.2424 15.114 70.1946 12.0625 69.1142 9.52278C68.1097 8.36662 68.1286 6.69873 68.7541 5.33409C69.0953 4.68968 68.6214 3.83677 69.7018 3.89363C70.7632 4.14002 72.1089 4.29165 72.6585 5.1256C73.3408 5.61839 73.8905 6.81244 72.9618 7.34314C71.4076 9.16266 72.0899 12.3089 71.7298 14.6212C71.3507 22.6954 71.0475 34.8255 80.0124 37.46C79.8797 38.1613 79.7281 38.9573 79.5765 39.1848C79.6144 38.2181 78.0223 37.6685 77.1315 37.6306C76.2217 38.1613 77.8707 42.0657 78.3635 42.9944C79.6333 44.0558 77.9844 45.2309 78.2876 46.4249C78.0602 46.3681 77.8896 46.2543 77.6432 46.1217C75.6342 38.3319 76.5818 45.1361 73.1892 45.6668C73.7578 44.1884 74.7244 42.6153 74.9898 40.9664C75.0656 40.701 75.0087 40.2082 75.6152 40.5873C75.9943 40.8147 75.9374 40.4167 75.8806 40.2082C74.6107 36.3797 73.7199 31.3381 70.005 29.3859C60.9074 36.8345 68.5646 36.8914 67.1431 44.0747C67.0673 43.6957 66.4608 42.1415 64.9255 41.0991C65.4373 38.8626 63.2387 36.645 64.2811 34.5601C62.8217 35.3372 61.9878 37.062 61.5518 38.6351C61.097 38.4835 60.5852 38.294 60.0924 38.0476C60.6231 37.877 60.9264 37.4979 61.1728 37.0051" fill="#655318"/>
</svg>
