<svg width="135" height="135" viewBox="0 0 135 135" fill="none" xmlns="http://www.w3.org/2000/svg">
<g clip-path="url(#clip0_378_10035)">
<path d="M7.97437 77.5986C12.2671 71.5853 16.1234 66.2808 16.1234 66.2808C16.1234 66.2808 5.39757 59.6885 6.25847 49.0914C7.15475 38.0039 15.8404 33.9044 20.5576 33.1897C21.1473 33.1011 21.9315 33.0715 22.816 33.0715C23.5 33.0715 24.2371 33.0893 24.98 33.107C25.723 33.1247 26.4778 33.1365 27.1912 33.1365C29.2668 33.1365 31.0181 33.0007 31.2834 32.3273C31.8554 30.8978 32.4274 28.3164 31.2834 26.0245C30.1395 23.7326 26.9908 21.7242 28.9956 20.2947C30.8825 18.942 30.9945 18.1032 34.6032 18.0087L34.6975 18.8238L35.0455 21.801L35.5761 26.308H49.7338L50.3942 21.9782L50.7892 19.3909L50.9426 18.3867C51.4379 18.4399 51.8506 18.4989 52.1631 18.5698C54.734 19.1428 62.7475 20.5782 63.3194 22.0077C63.8914 23.4431 60.4596 23.1537 57.8828 24.2996C55.3119 25.4456 53.0182 28.027 53.3071 34.0403C53.3071 34.0403 51.8801 50.3732 52.7351 53.2381C53.596 56.103 57.3108 62.1222 62.1755 64.1247C67.0343 66.1272 78.1905 74.7278 80.7673 85.0414C83.3441 95.3551 75.0477 109.969 70.183 113.696C66.5154 116.502 59.1152 117.843 49.321 117.843C46.1251 117.843 42.6697 117.701 39.0079 117.418C24.1368 116.272 19.7026 115.557 15.4099 113.265C11.1172 110.973 6.83043 105.675 4.96712 99.3718C3.18046 93.3231 3.68168 83.6119 7.96848 77.5986M12.5206 39.6874C12.3968 39.652 12.2789 39.6342 12.1609 39.6342C11.2293 39.6342 10.3979 40.6561 9.76102 41.619C8.82347 43.0485 7.89771 44.6079 7.61468 46.445C7.37292 48.0222 7.62057 49.6466 7.87413 51.2238C8.06281 52.4229 8.2574 53.6161 8.44609 54.8153C8.54633 55.4591 8.65247 56.103 8.84116 56.7173C9.43671 58.6489 10.9167 60.0725 12.5265 60.2674C12.1255 58.1882 10.5453 56.8355 9.86716 54.8802C9.41313 53.5866 9.38364 52.1276 9.37775 50.7158C9.36596 48.9791 9.37775 47.2188 9.74333 45.5412C10.103 43.8696 10.8519 42.2629 12.0135 41.3768L12.5501 40.3726C12.5442 40.1422 12.5324 39.9178 12.5265 39.6874M24.2783 61.4134C24.3314 61.4134 24.3845 61.4134 24.4434 61.4134C26.8492 61.4134 29.886 58.3713 31.1478 57.1131C32.4333 55.8253 32.7222 45.6535 31.8613 44.5075C31.0004 43.3616 28.7951 40.5734 28.4295 40.3549C27.663 39.8941 26.8905 39.7642 25.9471 39.7642C25.1333 39.7642 24.184 39.8587 22.9929 39.9296C20.4161 40.0714 18.5587 41.9321 16.1293 44.224C13.6999 46.5159 13.8414 51.8204 15.9878 55.4C18.1341 58.9797 21.849 61.2716 24.2842 61.4193" fill="#CCE5ED"/>
<path d="M49.7336 26.3134L52.0215 11.3804L33.7893 11.0555L35.576 26.3134H49.7336Z" fill="#D19D6E"/>
<path d="M37.3569 21.7794C37.9053 21.7794 38.4714 21.7794 39.0492 21.7913C41.626 21.8385 46.1428 21.9094 50.4001 21.9744L49.7397 26.3042H35.5821L35.0514 21.7972C35.7766 21.7853 36.5491 21.7735 37.3569 21.7735M35.2931 17.993C39.0728 17.993 47.2867 17.993 50.9485 18.3829L50.7952 19.3871C47.5344 19.1744 39.9573 18.7669 36.3014 18.7669C35.9182 18.7669 35.5821 18.7669 35.2931 18.7787C35.0868 18.7846 34.8922 18.7964 34.7035 18.8141L34.6091 17.9989C34.8273 17.9989 35.0514 17.993 35.2931 17.993Z" fill="#AC8F68"/>
<path d="M51.591 34.0485C51.591 34.0485 50.8775 53.6775 51.874 56.3947C52.8764 59.1178 57.1632 63.8435 61.4559 65.8518C65.7486 67.8602 78.9038 75.309 79.7588 89.2023C80.6197 103.096 70.3185 111.548 68.3195 112.269C66.3147 112.984 59.3096 116.422 40.5762 115.276C21.8429 114.13 17.2672 112.553 14.4073 110.261C11.5475 107.969 6.3998 101.093 5.68631 96.2198C4.97283 91.3465 6.3998 80.1763 12.9804 73.1529C19.5609 66.1354 17.4146 66.2771 22.9927 63.554C28.5708 60.8309 31.8611 59.5431 33.0051 56.247C34.149 52.9509 33.2881 33.4696 33.2881 33.4696C33.2881 33.4696 36.0064 34.4738 42.87 34.6156C49.7336 34.7573 51.591 34.0426 51.591 34.0426" fill="#C0CA5F"/>
<path d="M36.3014 18.7743C39.9573 18.7743 47.5344 19.1819 50.7952 19.3945L50.4001 21.9818C46.1428 21.9168 41.6201 21.8459 39.0433 21.7987C38.4655 21.7869 37.9053 21.7869 37.3569 21.7869C36.5491 21.7869 35.7766 21.7928 35.0514 21.8105L34.7035 18.8334C34.8922 18.8156 35.0926 18.8038 35.2931 18.7979C35.5821 18.7861 35.9182 18.7861 36.3014 18.7861" fill="#76AAAD"/>
<path d="M34.0547 66.5669C38.1115 65.3619 42.9997 65.9526 46.0247 62.9932C48.7312 60.3468 48.6663 56.082 48.3007 52.2719L48.2713 52.2129C48.2713 52.1479 48.2713 52.0711 48.2772 52.0061C48.2713 51.9175 48.2595 51.8348 48.2536 51.7462L48.2889 51.7285C48.3774 48.5801 48.3125 43.6005 48.4187 40.6529C48.4364 40.0917 48.4658 39.501 48.7725 39.0343C49.0791 38.5677 49.7631 38.3019 50.2112 38.6327C50.0284 43.7658 49.8869 50.5235 50.2053 55.6508L50.1051 55.4676C50.2525 57.0035 50.4058 58.5393 50.5532 60.0751L50.8186 60.9907C52.1512 63.4008 54.7339 64.7771 57.0984 66.183C61.0668 68.5458 64.7757 71.3516 68.1367 74.5237C70.9848 77.2173 73.7267 80.4956 73.9508 84.412C74.0215 85.6347 73.8151 86.9166 73.1075 87.9148C72.4 88.9131 71.1086 89.5511 69.9293 89.2439C68.6792 88.9249 67.8891 87.7317 67.1697 86.6567C63.0067 80.4248 56.9274 75.0553 49.5744 73.6435C43.9668 72.5684 37.5336 73.673 33.0581 70.1111C32.5392 69.6976 32.0262 69.1542 32.0203 68.4867C32.0086 67.4766 33.0994 66.8504 34.0664 66.5669" fill="#ECEFB9"/>
<path d="M72.7126 105.051C69.9884 108.879 65.6486 111.313 61.1259 112.565C56.6032 113.817 51.8624 113.995 47.1746 114.071C42.9468 114.136 38.7131 114.125 34.4912 113.859C28.6948 113.498 22.8042 112.636 17.6447 109.972C12.4852 107.308 8.12177 102.582 7.12524 96.8524C12.8331 101.507 19.7675 104.632 27.032 105.825C30.8766 106.457 34.7919 106.552 38.6895 106.54C49.2856 106.499 60.0409 105.613 69.9707 101.909C70.8434 101.584 71.8281 101.235 72.6772 101.613C73.5322 101.992 73.7858 103.48 72.8954 103.77L72.7126 105.045V105.051Z" fill="#B1B54D"/>
<path d="M35.5701 53.5334C35.7529 54.1537 35.3578 54.7975 35.3401 55.4473C35.3165 56.292 35.9592 57.0422 36.714 57.4143C37.4746 57.7865 38.3355 57.8692 39.1729 57.9696C40.0102 58.07 40.877 58.2118 41.5787 58.6844C41.9324 58.9206 42.2567 59.3164 42.1624 59.7299C42.0445 60.2438 41.4018 60.4033 40.877 60.4269C39.3615 60.4978 37.8461 60.2438 36.3307 60.2497C34.2315 60.2497 32.1324 60.7577 30.2573 61.7028C29.9801 61.5611 30.2455 61.1476 30.5108 60.9881C31.8552 60.1729 33.294 59.281 33.8836 57.8219C34.4851 56.3393 34.1608 54.384 35.3873 53.368C35.405 53.5216 35.4285 53.6693 35.4462 53.8229L35.5642 53.5393L35.5701 53.5334Z" fill="#B1B54D"/>
<path d="M104.743 100.225C111.229 95.6121 119.366 93.3911 127.285 94.0645C127.462 94.0763 127.668 94.1176 127.739 94.283C127.822 94.4898 127.603 94.6906 127.415 94.8147C121.43 98.6188 115.291 102.488 108.381 104.089C107.378 104.319 106.323 104.502 105.338 104.213C104.353 103.923 103.469 103.031 103.522 102.003L104.748 100.225H104.743Z" fill="#5B6450"/>
<path d="M104.324 94.0946C109.884 91.3951 113.281 85.24 119.024 82.954C119.266 83.5978 118.806 84.2772 118.37 84.8147C116.931 86.5868 115.486 88.3589 114.047 90.131C113.122 91.2651 112.196 92.4111 111.07 93.3444C109.796 94.4018 108.31 95.1579 106.836 95.908C106.282 96.1916 105.68 96.4751 105.067 96.3688C104.454 96.2566 103.941 95.53 104.271 95.0043L104.318 94.1005L104.324 94.0946Z" fill="#5B6450"/>
<path d="M97.3366 88.701C100.939 87.9685 104.855 89.9296 106.647 93.143C108.44 96.3564 108.127 100.568 106.081 103.628C105.592 104.366 104.99 105.057 104.212 105.477C103.328 105.955 102.29 106.05 101.287 106.032C100.114 106.008 98.9228 105.843 97.8673 105.335C95.9686 104.42 94.7126 102.482 94.1584 100.444C93.6041 98.4062 93.6689 96.256 93.8105 94.1531C93.9225 92.4873 94.2173 90.5853 95.6325 89.711L97.3366 88.701Z" fill="#5C9153"/>
<path d="M108.086 108.188C113.617 109.204 118.989 111.059 123.977 113.67C126.648 115.07 129.272 116.748 131 119.217C123.441 119.353 115.858 117.397 109.301 113.629C108.062 112.92 106.683 111.626 107.249 110.321L108.086 108.188Z" fill="#5B6450"/>
<path d="M96.4404 85.4861C98.6044 82.4203 99.7483 78.6989 100.014 74.9539C100.285 71.2088 99.7188 67.4343 98.6987 63.8192C98.5218 63.1871 98.1975 62.4428 97.543 62.366C96.629 62.2656 96.2458 63.4884 96.1632 64.4099C95.6325 70.4882 93.6749 76.4365 90.4907 81.6406C90.131 82.2313 89.7596 83.0169 90.1841 83.5604C90.3079 83.714 90.473 83.8203 90.644 83.9266C92.1595 84.8658 93.8989 85.8464 95.6325 85.4093L96.4345 85.4802L96.4404 85.4861Z" fill="#5B6450"/>
<path d="M83.5681 110.886C82.7957 111.984 81.4159 112.475 80.0951 112.687C78.7742 112.9 77.4063 112.894 76.1267 113.296C74.3106 113.869 72.6359 115.245 70.7549 114.979L71.4684 112.138C71.7043 111.199 71.946 110.242 72.4296 109.403C72.7598 108.818 73.202 108.31 73.6501 107.808C74.7587 106.568 75.938 105.386 77.1763 104.27C77.6362 103.856 78.1669 103.431 78.786 103.472C79.1575 103.502 79.4936 103.703 79.8003 103.91C80.7909 104.577 81.6872 105.38 82.4655 106.29C83.1967 107.147 83.8453 108.18 83.7981 109.303L83.574 110.886H83.5681Z" fill="#5B6450"/>
<path d="M101.464 105.976C104.383 105.876 107.355 106.939 109.43 109.001C111.5 111.062 112.597 114.116 112.143 117.005C111.689 119.893 109.631 122.516 106.877 123.49C103.658 124.63 100.008 123.49 97.2304 121.5C96.1513 120.726 95.1312 119.787 94.6241 118.558C94.1288 117.365 94.176 116.012 94.4119 114.742C94.9602 111.789 96.5405 109.042 98.8107 107.087L101.47 105.976H101.464Z" fill="#36672F"/>
<path d="M84.4584 94.1695C86.4278 94.1045 88.1319 95.7053 88.8572 97.5365C89.8419 100.029 89.3172 103.054 87.5482 105.068C85.7792 107.076 82.8486 107.98 80.2541 107.313C79.747 107.183 79.2458 106.994 78.8154 106.692C78.4321 106.427 78.1078 106.078 77.7835 105.741C76.728 104.613 75.643 103.438 75.1713 101.967C74.6229 100.254 75.018 98.3103 76.044 96.8336C77.07 95.3568 78.6739 94.3349 80.4016 93.8446L84.4525 94.1695H84.4584Z" fill="#366E2E"/>
<path d="M87.3361 105.376C89.6476 105.73 91.8824 106.817 93.4037 108.595C94.925 110.373 95.6739 112.854 95.1491 115.14C94.695 117.119 93.3329 118.82 91.6229 119.901C89.9129 120.982 87.8727 121.472 85.8443 121.526C84.2404 121.573 82.5069 121.295 81.3629 120.167C80.3251 119.139 79.9831 117.627 79.6824 116.198C79.4878 115.252 79.2873 114.301 79.3168 113.333C79.4053 110.101 81.9821 107.443 84.8065 105.884L87.3302 105.376H87.3361Z" fill="#305929"/>
<path d="M91.1394 94.849C94.5181 92.7697 99.2 92.3208 102.302 94.8017C104.43 96.5029 105.48 99.4092 105.049 102.103C104.613 104.79 102.75 107.183 100.291 108.358C97.832 109.534 94.8601 109.498 92.3836 108.37C91.505 107.974 90.6854 107.437 90.0308 106.728C88.5803 105.157 88.1204 102.894 88.138 100.756C88.1498 98.9189 88.5685 96.9164 90.0073 95.7823L91.1394 94.849Z" fill="#397731"/>
<path d="M86.5045 82.7004C89.5589 81.8853 93.0556 82.3224 95.4909 84.3485C97.9261 86.3746 98.9639 90.1137 97.4544 92.9018C96.2161 95.1819 93.5804 96.4342 90.9977 96.641C88.2735 96.8595 85.3901 95.9912 83.515 94.0005C81.6398 92.0099 80.9617 88.8378 82.2177 86.4041C82.6658 85.5358 83.8687 85.4767 84.0279 84.5139L86.5104 82.7063L86.5045 82.7004Z" fill="#45843A"/>
</g>
<defs>
<clipPath id="clip0_378_10035">
<rect width="127" height="112.889" fill="white" transform="matrix(-1 0 0 1 131 11.0555)"/>
</clipPath>
</defs>
</svg>
