<svg width="135" height="135" viewBox="0 0 135 135" fill="none" xmlns="http://www.w3.org/2000/svg">
<path d="M73.3708 128.141C72.7406 128.663 71.7142 128.087 71.4801 127.313C71.246 126.52 71.5341 125.692 71.8042 124.936C73.3348 120.56 74.2171 115.968 74.3972 111.341C74.4332 110.35 74.4332 109.342 74.2891 108.352C74.1451 107.397 73.839 106.479 73.803 105.507C73.7489 103.544 74.8113 101.725 75.9097 100.105C78.2866 96.5572 80.9876 93.244 83.9768 90.1828C84.4809 89.6606 85.0031 89.1384 85.3633 88.4902C85.6514 87.95 85.8134 87.3378 86.0115 86.7435C86.9659 84.0425 89.2347 81.8458 91.9717 80.9814C92.782 80.7293 93.6284 80.5673 94.3486 80.1351C95.231 79.5949 95.8252 78.6765 96.5455 77.9563C99.4265 75.0572 104.036 75.1292 108.124 75.3813C106.413 75.0932 104.703 74.7871 102.992 74.499C105.063 73.9588 106.467 71.5999 105.945 69.5291C105.675 72.2121 102.812 73.7427 100.327 74.8051L90.8193 78.8566C92.2959 76.2816 93.7724 73.7247 95.249 71.1497C96.4374 69.0789 97.6439 66.9902 99.1924 65.1715C97.6619 66.1799 96.2573 67.3503 94.9609 68.6468C95.339 67.0262 94.4927 65.2075 92.9981 64.4692C91.7917 66.2699 93.8264 68.6108 93.6284 70.7716C93.5563 71.6899 93.0702 72.5002 92.602 73.2925L88.6585 79.9731C85.2913 82.0798 82.5182 85.123 80.7175 88.6703C80.1413 89.8047 79.0069 91.2273 77.9265 90.543C79.4571 87.3018 80.0333 83.6104 79.5471 80.045C79.385 78.7846 79.0789 77.4701 79.4931 76.2816C79.9973 74.7871 81.4378 73.8507 82.6443 72.8424C83.8687 71.834 84.9491 70.6636 86.3176 69.8713C87.6861 69.079 89.4688 68.7549 90.8193 69.5652C90.3872 68.1967 88.3524 67.7105 87.344 68.7189C87.326 67.8365 87.29 66.9542 87.272 66.0719C86.2636 66.2159 85.6334 67.5304 86.1556 68.4127C84.9311 68.9529 84.3549 70.2854 83.5266 71.3298C82.7163 72.3742 81.1137 73.1845 80.1233 72.2842C80.5015 69.7272 81.6899 67.2783 83.4726 65.3876C83.0224 66.7741 81.942 67.9265 80.5915 68.4667C80.8976 66.6841 79.241 64.8474 77.4403 64.9734C79.7992 66.8641 79.8712 70.4475 79.1509 73.4006C78.4127 76.3357 77.0982 79.2348 77.3863 82.2599C75.4956 80.7293 73.6229 79.1988 71.7322 77.6682C71.12 77.182 70.4897 76.6418 70.2196 75.9035C69.7334 74.553 70.5798 72.8064 69.6074 71.744C68.8871 72.7163 68.7611 74.1028 69.3013 75.1652C68.4009 73.2385 66.2941 71.9601 64.1874 72.0321C67.3565 75.0212 70.5077 78.0283 73.6769 81.0174C75.8377 83.0702 78.1966 85.9153 77.0982 88.6703C74.7933 85.0509 71.1019 82.3499 66.9424 81.2515C66.3302 81.0895 65.6639 80.9454 65.2137 80.4772C64.7816 80.0271 64.6375 79.3788 64.3314 78.8386C63.8452 77.9203 62.9089 77.272 61.8825 77.146C62.2426 77.9923 62.6028 78.8566 62.9629 79.7029C61.3063 78.4604 58.8033 78.5505 57.2368 79.919C61.0182 79.883 64.2414 82.494 67.7167 84.0065C69.4813 84.7628 71.354 85.267 73.0467 86.1853C74.7213 87.1217 76.2339 88.6163 76.522 90.525C77.0802 94.2884 72.9746 96.8453 70.9399 100.051C68.671 103.634 69.0132 108.208 69.2653 112.439C69.5174 116.671 69.4273 121.371 66.5823 124.522C65.1957 126.052 63.161 127.241 62.7108 129.257L67.7707 127.187C68.2209 128.609 68.8691 129.942 69.7334 131.166C70.2016 129.888 70.2556 128.465 69.8955 127.151C71.6061 129.546 74.9914 130.59 77.7644 129.582C76.9001 128.573 75.5676 127.997 74.2351 128.087H73.3528L73.3708 128.141Z" fill="#3C1113"/>
<path d="M117.794 63.9345C119.595 65.0509 122.152 64.3666 123.827 65.6631C126.275 67.5538 124.727 71.5693 125.915 74.4324C124.295 74.5764 122.692 74.7385 121.071 74.8825C122.242 76.4851 121.702 79.0421 119.991 80.0505C118.28 81.0408 115.777 80.2305 114.985 78.4118C114.193 79.1681 113.365 79.9424 112.32 80.2845C111.276 80.6267 109.961 80.3746 109.385 79.4382C108.917 78.6639 109.079 77.7096 108.917 76.8273C108.665 75.3687 107.584 74.2163 106.774 72.9918C105.964 71.7494 105.406 70.0748 106.234 68.8323C104.343 69.0484 102.597 70.1828 101.606 71.8214C100.166 71.1552 100.634 69.0303 100.184 67.5178C99.5354 65.375 96.2762 64.6547 94.7997 66.3293C94.3315 65.411 93.2151 64.8708 92.2067 65.0689C91.3784 66.8516 90.6581 68.7062 90.0639 70.5789C87.9391 71.3893 87.1468 66.1853 85.022 66.9956C85.6522 65.339 83.0413 63.6823 81.7988 64.9608C82.5731 65.573 81.5827 66.9055 80.6104 66.8335C79.62 66.7615 78.8637 65.9692 78.0354 65.429C77.2071 64.8888 75.9286 64.6547 75.3704 65.465C74.8842 66.1492 75.2624 67.1036 75.1003 67.932C74.7582 69.6066 72.5253 69.9307 70.7967 69.8767C71.751 71.1011 72.7234 72.3256 73.6778 73.55C73.2456 74.2703 72.1832 74.2883 71.4269 73.9102C70.6707 73.55 70.0944 72.9018 69.3562 72.5056C67.5555 71.5513 65.1606 72.3616 63.9541 74.0002C62.7477 75.6388 62.5856 77.8716 63.0898 79.8344C60.6229 79.6363 57.9939 79.4742 55.8331 80.6807C55.2569 81.0048 54.7167 81.437 54.0864 81.6531C53.4562 81.8692 52.772 81.8691 52.1237 81.7431C48.6124 81.0948 46.3616 77.3675 42.9043 76.4852C41.7158 76.179 40.3653 76.197 39.483 75.3507C37.8084 73.7301 39.411 70.9571 41.1036 69.3725C44.0387 66.6355 47.3339 64.2586 50.8632 62.3318C53.8524 60.6932 57.0216 59.3968 60.2808 58.4244C62.5136 57.7762 65.1606 57.344 66.9793 58.7845C67.7536 59.3967 68.2758 60.2611 69.0861 60.8193C70.7247 61.9537 73.0655 61.4135 74.6862 60.2251C76.2887 59.0366 77.4052 57.29 78.7016 55.7774C80.0161 54.2649 81.7088 52.8603 83.7075 52.7703C85.7063 52.6802 87.8311 54.4809 87.3989 56.4256C88.2812 56.7317 89.2176 57.0198 90.1179 56.8038C91.0183 56.5877 91.7925 55.5973 91.4504 54.733C94.0794 53.0944 96.9605 56.9478 100.058 57.0019C101.228 57.0199 102.326 56.4797 103.425 56.0475C106.108 54.9671 109.007 54.5349 111.87 54.0848C113.527 53.8327 115.237 53.5806 116.858 54.0308C118.479 54.4809 119.955 55.8314 120.009 57.506C118.082 57.0019 116.084 59.3427 116.894 61.1614C117.254 61.9717 117.812 63.2682 116.93 63.4482L117.812 63.9345H117.794Z" fill="#0F735F"/>
<path d="M107.15 27.9631C111.993 29.0435 116.099 32.969 117.432 37.7588C115.811 38.9292 114.604 40.6938 114.154 42.6386C112.786 42.5665 111.417 42.5125 110.031 42.4585C110.823 45.1955 109.04 48.4188 106.285 49.193C103.548 49.9853 100.325 48.2026 99.5508 45.4476C99.2267 44.2952 99.2807 43.0707 98.9386 41.9183C97.8582 38.1729 92.1141 36.9665 89.6111 39.9556C89.161 35.0938 83.6689 31.3844 78.9872 32.8069C78.0508 27.3869 80.2656 21.5527 84.5512 18.1134C88.2066 18.0234 91.88 17.9153 95.5353 17.8253C95.8595 14.386 91.2677 12.2252 88.0445 13.4857C84.8213 14.7461 82.8586 17.9514 81.148 20.9405C79.6894 23.4974 78.2129 26.0544 76.7363 28.6114C75.2238 31.2404 72.7028 34.2835 69.8397 33.3291C67.1387 32.4288 64.7258 28.2872 62.6551 30.232C63.3573 32.5188 61.0885 34.8597 58.7116 35.1658C56.3347 35.4719 54.0118 34.3915 51.869 33.3471C51.3108 34.5716 50.7346 35.778 50.1764 37.0025C48.8079 38.551 46.1429 37.1465 45.2426 35.2919C44.3422 33.4372 44.1802 31.1683 42.7756 29.6557C40.8489 27.603 37.0495 28.0892 35.4649 30.412C33.8983 32.7349 34.6546 36.2282 36.8694 37.9388C33.5562 36.6424 29.8108 37.8128 26.5876 39.3073C23.3644 40.8019 20.1412 42.6746 16.5758 42.7827C13.0105 42.8907 9.04902 40.4058 9.08504 36.8584C9.12105 34.2114 11.3719 32.0146 13.8568 31.1863C16.3598 30.34 19.0788 30.5561 21.7078 30.7902C23.7785 21.9669 34.4565 17.2851 43.3338 19.1938C46.557 19.8781 50.3925 21.0666 52.7334 18.7617C53.7597 17.7533 54.1739 16.3127 54.8041 15.0163C57.163 10.1724 63.1412 7.39941 68.3632 8.7139C69.5336 10.8567 69.3175 13.6838 67.841 15.6285C69.2095 15.8446 70.578 16.0426 71.9465 16.2587C71.5864 12.0452 74.5035 8.06566 78.2309 6.06691C81.9583 4.06817 86.3339 3.74408 90.5655 3.85212C92.2761 3.90614 94.0768 4.05018 95.4813 5.02255C96.4897 5.72481 97.174 6.78716 97.7682 7.84956C99.5328 10.9827 100.775 14.386 101.424 17.9333C104.179 18.6896 106.934 19.4459 109.689 20.2022C108.158 22.5611 106.609 24.902 105.079 27.2609" fill="#0F735F"/>
<path d="M60.1178 40.5584C60.856 40.0363 61.5043 39.37 62.0265 38.6317C61.6664 40.5224 59.7216 41.5848 57.975 42.3951C58.4612 41.6568 59.3795 41.1167 60.1358 40.5584" fill="#3C1113"/>
<path d="M46.4316 39.9162C46.5577 39.6821 46.7197 39.448 46.9358 39.2859C46.8278 39.5741 46.6657 39.7721 46.4316 39.9162Z" fill="#3C1113"/>
<path d="M57.9573 42.4026C57.9573 42.4026 57.9213 42.4566 57.9033 42.4746C57.9033 42.4746 57.9033 42.4566 57.8852 42.4386C57.9033 42.4386 57.9393 42.4206 57.9573 42.4026Z" fill="#3C1113"/>
<path d="M17.8016 36.2486C19.2061 37.4731 21.1868 38.0133 23.0055 37.6711C22.2852 37.7072 21.619 37.0229 21.673 36.3206C25.1303 39.1477 29.9021 40.3001 34.2597 39.3458C33.1433 37.6891 31.3606 36.5187 29.4159 36.0325C30.6224 36.1766 31.8288 36.4107 32.9992 36.7528C32.5131 36.5547 32.225 35.9785 32.369 35.4743C34.4578 36.5907 34.3137 39.8139 36.0964 41.3805C36.7626 41.9567 37.609 42.2268 38.4373 42.4969C41.6245 43.5053 44.8117 44.5317 47.9988 45.5401C47.3686 44.6217 46.7384 43.7214 46.0901 42.803C45.0457 41.3085 43.8393 39.6878 42.0566 39.3097C41.0843 39.1116 39.6077 38.7155 39.9858 37.7971C41.3183 37.7791 42.3447 38.9136 43.4611 39.6518C44.3255 40.2281 45.658 40.4442 46.4143 39.922C45.838 41.0024 46.1081 42.5689 47.1885 43.2172C47.7647 43.5593 48.467 43.6674 49.0432 44.0275C50.0516 44.6578 50.4298 45.9362 51.096 46.9446C51.7623 47.953 53.2388 48.7092 54.1031 47.8629C53.797 46.1162 53.4909 44.3696 53.1668 42.623C52.5185 39.1477 51.5822 35.2762 48.5751 33.3855C49.1153 33.1154 49.8896 33.1874 50.2677 33.6556C50.2677 33.5296 51.3481 32.089 51.3481 31.963C50.7179 33.2055 50.8619 34.8261 51.7082 35.9245C52.3385 36.7348 53.3108 37.329 53.6169 38.3013C53.8871 38.4634 54.2472 38.2293 54.3372 37.9232C54.4272 37.6171 54.3552 37.293 54.3372 36.9869C54.2112 35.6904 54.8234 34.4479 55.4356 33.2955C55.1295 35.4923 54.8414 37.6711 54.5353 39.868C54.4452 40.5162 54.3552 41.1644 54.4993 41.7946C54.6253 42.3709 54.9314 42.9111 55.0575 43.5053C55.3996 44.9819 54.6613 46.5485 54.9675 48.025C55.4896 46.9986 56.1919 46.0623 57.0202 45.27C57.2543 45.0539 57.5064 44.8378 57.5964 44.5497C57.7225 44.2075 57.5964 43.8114 57.5964 43.4513C57.5964 43.0912 57.7045 42.785 57.8845 42.4969C57.9566 42.713 58.2087 42.695 58.1006 42.9111C59.127 42.3708 60.1354 42.1548 61.1618 41.6326C57.1823 43.8294 56.6241 49.2314 56.534 53.7871C61.882 51.2302 66.2217 46.6385 68.4545 41.1464C69.0847 39.6159 69.913 37.7252 71.5696 37.6711C71.0294 35.1322 70.0931 32.6833 68.8146 30.4144C70.7593 30.4144 72.2899 32.6112 71.7857 34.4479C72.47 32.6292 73.8025 31.0446 75.4951 30.0903C73.5504 32.4311 72.452 35.4383 72.434 38.4814L78.0701 35.5463C75.9273 37.5811 73.3703 39.2017 70.6153 40.2461C69.1928 43.3793 67.7882 46.5124 66.3657 49.6456C71.1915 49.0874 76.4315 48.3131 79.7267 44.7657C82.8779 41.3805 83.7962 35.8705 87.9198 33.7817C87.9198 34.8261 87.9198 35.8704 87.9378 36.9148C84.4805 38.2113 83.292 42.4069 82.5538 46.0262C86.4792 42.9471 91.6652 41.5246 96.599 42.1548C86.6053 41.6686 78.5923 50.3659 68.9227 52.9228C65.0512 53.9492 60.5675 54.1473 57.8485 57.1004C56.444 58.6129 55.7958 60.5757 55.3816 62.6284L55.5617 62.6825C53.4729 69.1109 51.9603 75.7193 51.024 82.3998C50.8799 83.4262 50.7539 84.4526 50.4117 85.443C50.0516 86.5054 49.4574 87.4777 48.8812 88.4321C46.0001 93.1678 43.101 97.8856 40.2199 102.621C39.7878 103.342 39.3376 104.062 39.0495 104.854C38.7794 105.575 38.6353 106.331 38.4373 107.069C38.0051 108.672 37.3389 110.202 36.9247 111.823C35.4482 117.729 38.1672 124.356 43.173 127.741C41.0122 126.858 38.4193 127.056 36.4925 128.389C36.9967 127.831 37.5009 127.291 38.0051 126.732C35.052 127.849 31.9729 128.641 28.8397 129.091C28.5336 128.587 29.0558 127.921 29.614 127.795C30.1902 127.651 30.7844 127.831 31.3786 127.795C34.0616 127.723 35.07 124.229 34.944 121.546C34.7099 116.811 33.2873 112.111 33.7915 107.393C34.5118 100.857 38.7074 95.5988 42.6869 90.1607C43.191 89.1344 43.6052 87.9819 43.2991 86.9015C43.173 86.5054 42.975 86.0372 43.209 85.6951C43.2811 85.587 43.4071 85.497 43.5152 85.425C44.2354 84.9028 44.8477 84.2545 45.3338 83.5163C45.4239 83.3722 45.5499 83.2101 45.712 83.2101C45.9821 83.2101 46.0901 83.5703 46.0901 83.8584C46.0901 84.3086 46.0901 84.7407 46.1081 85.1909C46.6483 84.3085 47.1705 83.4262 47.6387 82.5258C50.5918 76.7097 51.6002 70.1552 52.4105 63.6728L52.4465 63.1146C53.4369 60.9358 53.4729 59.2252 53.0047 56.9383C52.2124 53.1569 48.0168 51.3202 44.3615 50.0777C40.454 48.7453 36.5286 47.4127 32.6211 46.0622C35.3941 46.7465 38.1672 47.4127 40.9222 48.097C40.5261 47.6468 40.418 46.9626 40.6161 46.4044C43.119 48.7812 46.2702 50.4739 49.6555 51.2302C49.8175 50.2218 49.0972 49.3034 48.359 48.6012C46.2162 46.4944 43.5692 44.9098 40.7061 44.0095C38.1131 43.1812 34.8539 42.4429 34.1697 39.8319C32.0089 40.8583 29.4699 40.5522 27.1831 39.8859C24.8962 39.2377 22.6634 38.2653 20.2865 38.0312C19.1161 37.9052 17.4594 37.419 17.7475 36.2846" fill="#3C1113"/>
<path d="M29.4171 36.0356C28.3727 35.9096 27.3103 35.8556 26.2479 35.8736C27.3103 35.7115 28.3727 35.7835 29.4171 36.0356Z" fill="#3C1113"/>
</svg>
