<svg width="20" height="21" viewBox="0 0 20 21" fill="none" xmlns="http://www.w3.org/2000/svg">
<path d="M10 7.17969C9.25832 7.17969 8.5333 7.39962 7.91661 7.81168C7.29993 8.22373 6.81928 8.8094 6.53545 9.49462C6.25162 10.1798 6.17736 10.9338 6.32206 11.6613C6.46675 12.3887 6.8239 13.0569 7.34835 13.5813C7.8728 14.1058 8.54098 14.4629 9.26841 14.6076C9.99584 14.7523 10.7498 14.6781 11.4351 14.3942C12.1203 14.1104 12.706 13.6298 13.118 13.0131C13.5301 12.3964 13.75 11.6714 13.75 10.9297C13.749 9.93544 13.3535 8.98222 12.6505 8.27918C11.9475 7.57614 10.9942 7.18072 10 7.17969ZM10 13.4297C9.50555 13.4297 9.0222 13.2831 8.61107 13.0084C8.19995 12.7337 7.87952 12.3432 7.6903 11.8864C7.50108 11.4296 7.45157 10.9269 7.54804 10.442C7.6445 9.95701 7.8826 9.51155 8.23223 9.16192C8.58186 8.81229 9.02732 8.57419 9.51227 8.47772C9.99723 8.38126 10.4999 8.43077 10.9567 8.61999C11.4135 8.80921 11.804 9.12964 12.0787 9.54076C12.3534 9.95189 12.5 10.4352 12.5 10.9297C12.5 11.5927 12.2366 12.2286 11.7678 12.6975C11.2989 13.1663 10.663 13.4297 10 13.4297ZM13.75 2.80469H6.25C5.09006 2.80593 3.97798 3.26726 3.15778 4.08747C2.33758 4.90767 1.87624 6.01975 1.875 7.17969V14.6797C1.87624 15.8396 2.33758 16.9517 3.15778 17.7719C3.97798 18.5921 5.09006 19.0534 6.25 19.0547H13.75C14.9099 19.0534 16.022 18.5921 16.8422 17.7719C17.6624 16.9517 18.1238 15.8396 18.125 14.6797V7.17969C18.1238 6.01975 17.6624 4.90767 16.8422 4.08747C16.022 3.26726 14.9099 2.80593 13.75 2.80469ZM16.875 14.6797C16.875 15.5085 16.5458 16.3033 15.9597 16.8894C15.3737 17.4754 14.5788 17.8047 13.75 17.8047H6.25C5.4212 17.8047 4.62634 17.4754 4.04029 16.8894C3.45424 16.3033 3.125 15.5085 3.125 14.6797V7.17969C3.125 6.35089 3.45424 5.55603 4.04029 4.96998C4.62634 4.38393 5.4212 4.05469 6.25 4.05469H13.75C14.5788 4.05469 15.3737 4.38393 15.9597 4.96998C16.5458 5.55603 16.875 6.35089 16.875 7.17969V14.6797ZM15 6.86719C15 7.05261 14.945 7.23386 14.842 7.38803C14.739 7.54221 14.5926 7.66237 14.4213 7.73332C14.25 7.80428 14.0615 7.82285 13.8796 7.78667C13.6977 7.7505 13.5307 7.66121 13.3996 7.5301C13.2685 7.39899 13.1792 7.23194 13.143 7.05009C13.1068 6.86823 13.1254 6.67973 13.1964 6.50842C13.2673 6.33712 13.3875 6.1907 13.5417 6.08768C13.6958 5.98467 13.8771 5.92969 14.0625 5.92969C14.3111 5.92969 14.5496 6.02846 14.7254 6.20427C14.9012 6.38009 15 6.61855 15 6.86719Z" fill="#333333"/>
</svg>
