<svg width="20" height="21" viewBox="0 0 20 21" fill="none" xmlns="http://www.w3.org/2000/svg">
<path d="M16.875 2.80469H3.125C2.79348 2.80469 2.47554 2.93638 2.24112 3.1708C2.0067 3.40522 1.875 3.72317 1.875 4.05469V17.8047C1.875 18.1362 2.0067 18.4542 2.24112 18.6886C2.47554 18.923 2.79348 19.0547 3.125 19.0547H16.875C17.2065 19.0547 17.5245 18.923 17.7589 18.6886C17.9933 18.4542 18.125 18.1362 18.125 17.8047V4.05469C18.125 3.72317 17.9933 3.40522 17.7589 3.1708C17.5245 2.93638 17.2065 2.80469 16.875 2.80469ZM16.875 17.8047H3.125V4.05469H16.875V17.8047ZM7.5 9.67969V14.6797C7.5 14.8454 7.43415 15.0044 7.31694 15.1216C7.19973 15.2388 7.04076 15.3047 6.875 15.3047C6.70924 15.3047 6.55027 15.2388 6.43306 15.1216C6.31585 15.0044 6.25 14.8454 6.25 14.6797V9.67969C6.25 9.51393 6.31585 9.35496 6.43306 9.23775C6.55027 9.12054 6.70924 9.05469 6.875 9.05469C7.04076 9.05469 7.19973 9.12054 7.31694 9.23775C7.43415 9.35496 7.5 9.51393 7.5 9.67969ZM14.375 11.8672V14.6797C14.375 14.8454 14.3092 15.0044 14.1919 15.1216C14.0747 15.2388 13.9158 15.3047 13.75 15.3047C13.5842 15.3047 13.4253 15.2388 13.3081 15.1216C13.1908 15.0044 13.125 14.8454 13.125 14.6797V11.8672C13.125 11.4528 12.9604 11.0554 12.6674 10.7623C12.3743 10.4693 11.9769 10.3047 11.5625 10.3047C11.1481 10.3047 10.7507 10.4693 10.4576 10.7623C10.1646 11.0554 10 11.4528 10 11.8672V14.6797C10 14.8454 9.93415 15.0044 9.81694 15.1216C9.69973 15.2388 9.54076 15.3047 9.375 15.3047C9.20924 15.3047 9.05027 15.2388 8.93306 15.1216C8.81585 15.0044 8.75 14.8454 8.75 14.6797V9.67969C8.75078 9.5266 8.80771 9.37912 8.91001 9.26522C9.01231 9.15132 9.15285 9.07894 9.30498 9.06179C9.45711 9.04464 9.61024 9.08392 9.73533 9.17218C9.86041 9.26045 9.94876 9.39155 9.98359 9.54063C10.4064 9.25381 10.8993 9.08758 11.4095 9.05978C11.9196 9.03199 12.4277 9.14368 12.8792 9.38286C13.3306 9.62204 13.7084 9.97968 13.972 10.4174C14.2355 10.8551 14.3748 11.3563 14.375 11.8672ZM7.8125 7.49219C7.8125 7.67761 7.75752 7.85886 7.6545 8.01303C7.55149 8.16721 7.40507 8.28737 7.23377 8.35832C7.06246 8.42928 6.87396 8.44785 6.6921 8.41167C6.51025 8.3755 6.3432 8.28621 6.21209 8.1551C6.08098 8.02399 5.99169 7.85694 5.95551 7.67509C5.91934 7.49323 5.93791 7.30473 6.00886 7.13342C6.07982 6.96212 6.19998 6.8157 6.35415 6.71268C6.50832 6.60967 6.68958 6.55469 6.875 6.55469C7.12364 6.55469 7.3621 6.65346 7.53791 6.82927C7.71373 7.00509 7.8125 7.24355 7.8125 7.49219Z" fill="#333333"/>
</svg>
