<svg width="20" height="21" viewBox="0 0 20 21" fill="none" xmlns="http://www.w3.org/2000/svg">
<path d="M12.8469 10.4094L9.09688 7.90938C9.00273 7.84656 8.89329 7.81049 8.78024 7.80502C8.6672 7.79954 8.55479 7.82486 8.45501 7.87828C8.35523 7.9317 8.27183 8.01121 8.21371 8.10832C8.15559 8.20544 8.12493 8.31651 8.125 8.42969V13.4297C8.12493 13.5429 8.15559 13.6539 8.21371 13.7511C8.27183 13.8482 8.35523 13.9277 8.45501 13.9811C8.55479 14.0345 8.6672 14.0598 8.78024 14.0544C8.89329 14.0489 9.00273 14.0128 9.09688 13.95L12.8469 11.45C12.9326 11.393 13.0029 11.3156 13.0515 11.2248C13.1002 11.1341 13.1256 11.0327 13.1256 10.9297C13.1256 10.8267 13.1002 10.7253 13.0515 10.6346C13.0029 10.5438 12.9326 10.4664 12.8469 10.4094ZM9.375 12.2617V9.60157L11.3734 10.9297L9.375 12.2617ZM18.307 6.36094C18.2334 6.07293 18.0924 5.80655 17.8955 5.58378C17.6987 5.36101 17.4517 5.18822 17.175 5.07969C14.4969 4.04532 10.2344 4.05469 10 4.05469C9.76562 4.05469 5.50312 4.04532 2.825 5.07969C2.54825 5.18822 2.30128 5.36101 2.10445 5.58378C1.90762 5.80655 1.76658 6.07293 1.69297 6.36094C1.49063 7.14063 1.25 8.56563 1.25 10.9297C1.25 13.2938 1.49063 14.7188 1.69297 15.4984C1.76647 15.7866 1.90746 16.0531 2.1043 16.276C2.30113 16.499 2.54816 16.6719 2.825 16.7805C5.39062 17.7703 9.40625 17.8047 9.94844 17.8047H10.0516C10.5938 17.8047 14.6117 17.7703 17.175 16.7805C17.4518 16.6719 17.6989 16.499 17.8957 16.276C18.0925 16.0531 18.2335 15.7866 18.307 15.4984C18.5094 14.7172 18.75 13.2938 18.75 10.9297C18.75 8.56563 18.5094 7.14063 18.307 6.36094ZM17.0969 15.1891C17.0731 15.2849 17.0269 15.3738 16.9621 15.4483C16.8973 15.5229 16.8158 15.581 16.7242 15.618C14.2516 16.5727 10.0461 16.5555 10.0055 16.5555H10C9.95781 16.5555 5.75547 16.5711 3.28125 15.618C3.18966 15.581 3.10814 15.5229 3.04337 15.4483C2.97859 15.3738 2.9324 15.2849 2.90859 15.1891C2.71875 14.4758 2.5 13.1617 2.5 10.9297C2.5 8.69766 2.71875 7.3836 2.90313 6.67422C2.92649 6.5778 2.97248 6.48833 3.03728 6.4132C3.10208 6.33808 3.18383 6.27946 3.27578 6.24219C5.66016 5.3211 9.65547 5.30469 9.98281 5.30469H10.0039C10.0461 5.30469 14.2523 5.29063 16.7227 6.24219C16.8142 6.27915 16.8958 6.3373 16.9605 6.41185C17.0253 6.4864 17.0715 6.57525 17.0953 6.6711C17.2812 7.3836 17.5 8.69766 17.5 10.9297C17.5 13.1617 17.2812 14.4758 17.0969 15.1852V15.1891Z" fill="#333333"/>
</svg>
